<?xml version="1.0" encoding="utf-8" standalone="no"?>
<!DOCTYPE svg PUBLIC "-//W3C//DTD SVG 1.1//EN"
  "http://www.w3.org/Graphics/SVG/1.1/DTD/svg11.dtd">
<!-- Created with matplotlib (https://matplotlib.org/) -->
<svg height="345.6pt" version="1.1" viewBox="0 0 460.8 345.6" width="460.8pt" xmlns="http://www.w3.org/2000/svg" xmlns:xlink="http://www.w3.org/1999/xlink">
 <defs>
  <style type="text/css">
*{stroke-linecap:butt;stroke-linejoin:round;}
  </style>
 </defs>
 <g id="figure_1">
  <g id="patch_1">
   <path d="M 0 345.6 
L 460.8 345.6 
L 460.8 0 
L 0 0 
z
"/>
  </g>
  <g id="axes_1">
   <g id="patch_2">
    <path d="M 57.6 307.584 
L 414.72 307.584 
L 414.72 41.472 
L 57.6 41.472 
z
"/>
   </g>
   <g id="matplotlib.axis_1">
    <g id="xtick_1">
     <g id="line2d_1">
      <path clip-path="url(#p1773bfc1f0)" d="M 73.832727 307.584 
L 73.832727 41.472 
" style="fill:none;stroke:#404040;stroke-linecap:square;"/>
     </g>
     <g id="line2d_2">
      <defs>
       <path d="M 0 0 
L 0 3.5 
" id="mc82be350d7" style="stroke:#ffffff;stroke-width:0.8;"/>
      </defs>
      <g>
       <use style="fill:#ffffff;stroke:#ffffff;stroke-width:0.8;" x="73.832727" xlink:href="#mc82be350d7" y="307.584"/>
      </g>
     </g>
     <g id="text_1">
      <!-- 0 -->
      <defs>
       <path d="M 31.78125 66.40625 
Q 24.171875 66.40625 20.328125 58.90625 
Q 16.5 51.421875 16.5 36.375 
Q 16.5 21.390625 20.328125 13.890625 
Q 24.171875 6.390625 31.78125 6.390625 
Q 39.453125 6.390625 43.28125 13.890625 
Q 47.125 21.390625 47.125 36.375 
Q 47.125 51.421875 43.28125 58.90625 
Q 39.453125 66.40625 31.78125 66.40625 
z
M 31.78125 74.21875 
Q 44.046875 74.21875 50.515625 64.515625 
Q 56.984375 54.828125 56.984375 36.375 
Q 56.984375 17.96875 50.515625 8.265625 
Q 44.046875 -1.421875 31.78125 -1.421875 
Q 19.53125 -1.421875 13.0625 8.265625 
Q 6.59375 17.96875 6.59375 36.375 
Q 6.59375 54.828125 13.0625 64.515625 
Q 19.53125 74.21875 31.78125 74.21875 
z
" id="DejaVuSans-48"/>
      </defs>
      <g style="fill:#ffffff;" transform="translate(70.651477 322.182437)scale(0.1 -0.1)">
       <use xlink:href="#DejaVuSans-48"/>
      </g>
     </g>
    </g>
    <g id="xtick_2">
     <g id="line2d_3">
      <path clip-path="url(#p1773bfc1f0)" d="M 113.883275 307.584 
L 113.883275 41.472 
" style="fill:none;stroke:#404040;stroke-linecap:square;"/>
     </g>
     <g id="line2d_4">
      <g>
       <use style="fill:#ffffff;stroke:#ffffff;stroke-width:0.8;" x="113.883275" xlink:href="#mc82be350d7" y="307.584"/>
      </g>
     </g>
     <g id="text_2">
      <!-- 200 -->
      <defs>
       <path d="M 19.1875 8.296875 
L 53.609375 8.296875 
L 53.609375 0 
L 7.328125 0 
L 7.328125 8.296875 
Q 12.9375 14.109375 22.625 23.890625 
Q 32.328125 33.6875 34.8125 36.53125 
Q 39.546875 41.84375 41.421875 45.53125 
Q 43.3125 49.21875 43.3125 52.78125 
Q 43.3125 58.59375 39.234375 62.25 
Q 35.15625 65.921875 28.609375 65.921875 
Q 23.96875 65.921875 18.8125 64.3125 
Q 13.671875 62.703125 7.8125 59.421875 
L 7.8125 69.390625 
Q 13.765625 71.78125 18.9375 73 
Q 24.125 74.21875 28.421875 74.21875 
Q 39.75 74.21875 46.484375 68.546875 
Q 53.21875 62.890625 53.21875 53.421875 
Q 53.21875 48.921875 51.53125 44.890625 
Q 49.859375 40.875 45.40625 35.40625 
Q 44.1875 33.984375 37.640625 27.21875 
Q 31.109375 20.453125 19.1875 8.296875 
z
" id="DejaVuSans-50"/>
      </defs>
      <g style="fill:#ffffff;" transform="translate(104.339525 322.182437)scale(0.1 -0.1)">
       <use xlink:href="#DejaVuSans-50"/>
       <use x="63.623047" xlink:href="#DejaVuSans-48"/>
       <use x="127.246094" xlink:href="#DejaVuSans-48"/>
      </g>
     </g>
    </g>
    <g id="xtick_3">
     <g id="line2d_5">
      <path clip-path="url(#p1773bfc1f0)" d="M 153.933823 307.584 
L 153.933823 41.472 
" style="fill:none;stroke:#404040;stroke-linecap:square;"/>
     </g>
     <g id="line2d_6">
      <g>
       <use style="fill:#ffffff;stroke:#ffffff;stroke-width:0.8;" x="153.933823" xlink:href="#mc82be350d7" y="307.584"/>
      </g>
     </g>
     <g id="text_3">
      <!-- 400 -->
      <defs>
       <path d="M 37.796875 64.3125 
L 12.890625 25.390625 
L 37.796875 25.390625 
z
M 35.203125 72.90625 
L 47.609375 72.90625 
L 47.609375 25.390625 
L 58.015625 25.390625 
L 58.015625 17.1875 
L 47.609375 17.1875 
L 47.609375 0 
L 37.796875 0 
L 37.796875 17.1875 
L 4.890625 17.1875 
L 4.890625 26.703125 
z
" id="DejaVuSans-52"/>
      </defs>
      <g style="fill:#ffffff;" transform="translate(144.390073 322.182437)scale(0.1 -0.1)">
       <use xlink:href="#DejaVuSans-52"/>
       <use x="63.623047" xlink:href="#DejaVuSans-48"/>
       <use x="127.246094" xlink:href="#DejaVuSans-48"/>
      </g>
     </g>
    </g>
    <g id="xtick_4">
     <g id="line2d_7">
      <path clip-path="url(#p1773bfc1f0)" d="M 193.98437 307.584 
L 193.98437 41.472 
" style="fill:none;stroke:#404040;stroke-linecap:square;"/>
     </g>
     <g id="line2d_8">
      <g>
       <use style="fill:#ffffff;stroke:#ffffff;stroke-width:0.8;" x="193.98437" xlink:href="#mc82be350d7" y="307.584"/>
      </g>
     </g>
     <g id="text_4">
      <!-- 600 -->
      <defs>
       <path d="M 33.015625 40.375 
Q 26.375 40.375 22.484375 35.828125 
Q 18.609375 31.296875 18.609375 23.390625 
Q 18.609375 15.53125 22.484375 10.953125 
Q 26.375 6.390625 33.015625 6.390625 
Q 39.65625 6.390625 43.53125 10.953125 
Q 47.40625 15.53125 47.40625 23.390625 
Q 47.40625 31.296875 43.53125 35.828125 
Q 39.65625 40.375 33.015625 40.375 
z
M 52.59375 71.296875 
L 52.59375 62.3125 
Q 48.875 64.0625 45.09375 64.984375 
Q 41.3125 65.921875 37.59375 65.921875 
Q 27.828125 65.921875 22.671875 59.328125 
Q 17.53125 52.734375 16.796875 39.40625 
Q 19.671875 43.65625 24.015625 45.921875 
Q 28.375 48.1875 33.59375 48.1875 
Q 44.578125 48.1875 50.953125 41.515625 
Q 57.328125 34.859375 57.328125 23.390625 
Q 57.328125 12.15625 50.6875 5.359375 
Q 44.046875 -1.421875 33.015625 -1.421875 
Q 20.359375 -1.421875 13.671875 8.265625 
Q 6.984375 17.96875 6.984375 36.375 
Q 6.984375 53.65625 15.1875 63.9375 
Q 23.390625 74.21875 37.203125 74.21875 
Q 40.921875 74.21875 44.703125 73.484375 
Q 48.484375 72.75 52.59375 71.296875 
z
" id="DejaVuSans-54"/>
      </defs>
      <g style="fill:#ffffff;" transform="translate(184.44062 322.182437)scale(0.1 -0.1)">
       <use xlink:href="#DejaVuSans-54"/>
       <use x="63.623047" xlink:href="#DejaVuSans-48"/>
       <use x="127.246094" xlink:href="#DejaVuSans-48"/>
      </g>
     </g>
    </g>
    <g id="xtick_5">
     <g id="line2d_9">
      <path clip-path="url(#p1773bfc1f0)" d="M 234.034918 307.584 
L 234.034918 41.472 
" style="fill:none;stroke:#404040;stroke-linecap:square;"/>
     </g>
     <g id="line2d_10">
      <g>
       <use style="fill:#ffffff;stroke:#ffffff;stroke-width:0.8;" x="234.034918" xlink:href="#mc82be350d7" y="307.584"/>
      </g>
     </g>
     <g id="text_5">
      <!-- 800 -->
      <defs>
       <path d="M 31.78125 34.625 
Q 24.75 34.625 20.71875 30.859375 
Q 16.703125 27.09375 16.703125 20.515625 
Q 16.703125 13.921875 20.71875 10.15625 
Q 24.75 6.390625 31.78125 6.390625 
Q 38.8125 6.390625 42.859375 10.171875 
Q 46.921875 13.96875 46.921875 20.515625 
Q 46.921875 27.09375 42.890625 30.859375 
Q 38.875 34.625 31.78125 34.625 
z
M 21.921875 38.8125 
Q 15.578125 40.375 12.03125 44.71875 
Q 8.5 49.078125 8.5 55.328125 
Q 8.5 64.0625 14.71875 69.140625 
Q 20.953125 74.21875 31.78125 74.21875 
Q 42.671875 74.21875 48.875 69.140625 
Q 55.078125 64.0625 55.078125 55.328125 
Q 55.078125 49.078125 51.53125 44.71875 
Q 48 40.375 41.703125 38.8125 
Q 48.828125 37.15625 52.796875 32.3125 
Q 56.78125 27.484375 56.78125 20.515625 
Q 56.78125 9.90625 50.3125 4.234375 
Q 43.84375 -1.421875 31.78125 -1.421875 
Q 19.734375 -1.421875 13.25 4.234375 
Q 6.78125 9.90625 6.78125 20.515625 
Q 6.78125 27.484375 10.78125 32.3125 
Q 14.796875 37.15625 21.921875 38.8125 
z
M 18.3125 54.390625 
Q 18.3125 48.734375 21.84375 45.5625 
Q 25.390625 42.390625 31.78125 42.390625 
Q 38.140625 42.390625 41.71875 45.5625 
Q 45.3125 48.734375 45.3125 54.390625 
Q 45.3125 60.0625 41.71875 63.234375 
Q 38.140625 66.40625 31.78125 66.40625 
Q 25.390625 66.40625 21.84375 63.234375 
Q 18.3125 60.0625 18.3125 54.390625 
z
" id="DejaVuSans-56"/>
      </defs>
      <g style="fill:#ffffff;" transform="translate(224.491168 322.182437)scale(0.1 -0.1)">
       <use xlink:href="#DejaVuSans-56"/>
       <use x="63.623047" xlink:href="#DejaVuSans-48"/>
       <use x="127.246094" xlink:href="#DejaVuSans-48"/>
      </g>
     </g>
    </g>
    <g id="xtick_6">
     <g id="line2d_11">
      <path clip-path="url(#p1773bfc1f0)" d="M 274.085466 307.584 
L 274.085466 41.472 
" style="fill:none;stroke:#404040;stroke-linecap:square;"/>
     </g>
     <g id="line2d_12">
      <g>
       <use style="fill:#ffffff;stroke:#ffffff;stroke-width:0.8;" x="274.085466" xlink:href="#mc82be350d7" y="307.584"/>
      </g>
     </g>
     <g id="text_6">
      <!-- 1000 -->
      <defs>
       <path d="M 12.40625 8.296875 
L 28.515625 8.296875 
L 28.515625 63.921875 
L 10.984375 60.40625 
L 10.984375 69.390625 
L 28.421875 72.90625 
L 38.28125 72.90625 
L 38.28125 8.296875 
L 54.390625 8.296875 
L 54.390625 0 
L 12.40625 0 
z
" id="DejaVuSans-49"/>
      </defs>
      <g style="fill:#ffffff;" transform="translate(261.360466 322.182437)scale(0.1 -0.1)">
       <use xlink:href="#DejaVuSans-49"/>
       <use x="63.623047" xlink:href="#DejaVuSans-48"/>
       <use x="127.246094" xlink:href="#DejaVuSans-48"/>
       <use x="190.869141" xlink:href="#DejaVuSans-48"/>
      </g>
     </g>
    </g>
    <g id="xtick_7">
     <g id="line2d_13">
      <path clip-path="url(#p1773bfc1f0)" d="M 314.136013 307.584 
L 314.136013 41.472 
" style="fill:none;stroke:#404040;stroke-linecap:square;"/>
     </g>
     <g id="line2d_14">
      <g>
       <use style="fill:#ffffff;stroke:#ffffff;stroke-width:0.8;" x="314.136013" xlink:href="#mc82be350d7" y="307.584"/>
      </g>
     </g>
     <g id="text_7">
      <!-- 1200 -->
      <g style="fill:#ffffff;" transform="translate(301.411013 322.182437)scale(0.1 -0.1)">
       <use xlink:href="#DejaVuSans-49"/>
       <use x="63.623047" xlink:href="#DejaVuSans-50"/>
       <use x="127.246094" xlink:href="#DejaVuSans-48"/>
       <use x="190.869141" xlink:href="#DejaVuSans-48"/>
      </g>
     </g>
    </g>
    <g id="xtick_8">
     <g id="line2d_15">
      <path clip-path="url(#p1773bfc1f0)" d="M 354.186561 307.584 
L 354.186561 41.472 
" style="fill:none;stroke:#404040;stroke-linecap:square;"/>
     </g>
     <g id="line2d_16">
      <g>
       <use style="fill:#ffffff;stroke:#ffffff;stroke-width:0.8;" x="354.186561" xlink:href="#mc82be350d7" y="307.584"/>
      </g>
     </g>
     <g id="text_8">
      <!-- 1400 -->
      <g style="fill:#ffffff;" transform="translate(341.461561 322.182437)scale(0.1 -0.1)">
       <use xlink:href="#DejaVuSans-49"/>
       <use x="63.623047" xlink:href="#DejaVuSans-52"/>
       <use x="127.246094" xlink:href="#DejaVuSans-48"/>
       <use x="190.869141" xlink:href="#DejaVuSans-48"/>
      </g>
     </g>
    </g>
    <g id="xtick_9">
     <g id="line2d_17">
      <path clip-path="url(#p1773bfc1f0)" d="M 394.237109 307.584 
L 394.237109 41.472 
" style="fill:none;stroke:#404040;stroke-linecap:square;"/>
     </g>
     <g id="line2d_18">
      <g>
       <use style="fill:#ffffff;stroke:#ffffff;stroke-width:0.8;" x="394.237109" xlink:href="#mc82be350d7" y="307.584"/>
      </g>
     </g>
     <g id="text_9">
      <!-- 1600 -->
      <g style="fill:#ffffff;" transform="translate(381.512109 322.182437)scale(0.1 -0.1)">
       <use xlink:href="#DejaVuSans-49"/>
       <use x="63.623047" xlink:href="#DejaVuSans-54"/>
       <use x="127.246094" xlink:href="#DejaVuSans-48"/>
       <use x="190.869141" xlink:href="#DejaVuSans-48"/>
      </g>
     </g>
    </g>
    <g id="text_10">
     <!-- Time [uS] -->
     <defs>
      <path d="M -0.296875 72.90625 
L 61.375 72.90625 
L 61.375 64.59375 
L 35.5 64.59375 
L 35.5 0 
L 25.59375 0 
L 25.59375 64.59375 
L -0.296875 64.59375 
z
" id="DejaVuSans-84"/>
      <path d="M 9.421875 54.6875 
L 18.40625 54.6875 
L 18.40625 0 
L 9.421875 0 
z
M 9.421875 75.984375 
L 18.40625 75.984375 
L 18.40625 64.59375 
L 9.421875 64.59375 
z
" id="DejaVuSans-105"/>
      <path d="M 52 44.1875 
Q 55.375 50.25 60.0625 53.125 
Q 64.75 56 71.09375 56 
Q 79.640625 56 84.28125 50.015625 
Q 88.921875 44.046875 88.921875 33.015625 
L 88.921875 0 
L 79.890625 0 
L 79.890625 32.71875 
Q 79.890625 40.578125 77.09375 44.375 
Q 74.3125 48.1875 68.609375 48.1875 
Q 61.625 48.1875 57.5625 43.546875 
Q 53.515625 38.921875 53.515625 30.90625 
L 53.515625 0 
L 44.484375 0 
L 44.484375 32.71875 
Q 44.484375 40.625 41.703125 44.40625 
Q 38.921875 48.1875 33.109375 48.1875 
Q 26.21875 48.1875 22.15625 43.53125 
Q 18.109375 38.875 18.109375 30.90625 
L 18.109375 0 
L 9.078125 0 
L 9.078125 54.6875 
L 18.109375 54.6875 
L 18.109375 46.1875 
Q 21.1875 51.21875 25.484375 53.609375 
Q 29.78125 56 35.6875 56 
Q 41.65625 56 45.828125 52.96875 
Q 50 49.953125 52 44.1875 
z
" id="DejaVuSans-109"/>
      <path d="M 56.203125 29.59375 
L 56.203125 25.203125 
L 14.890625 25.203125 
Q 15.484375 15.921875 20.484375 11.0625 
Q 25.484375 6.203125 34.421875 6.203125 
Q 39.59375 6.203125 44.453125 7.46875 
Q 49.3125 8.734375 54.109375 11.28125 
L 54.109375 2.78125 
Q 49.265625 0.734375 44.1875 -0.34375 
Q 39.109375 -1.421875 33.890625 -1.421875 
Q 20.796875 -1.421875 13.15625 6.1875 
Q 5.515625 13.8125 5.515625 26.8125 
Q 5.515625 40.234375 12.765625 48.109375 
Q 20.015625 56 32.328125 56 
Q 43.359375 56 49.78125 48.890625 
Q 56.203125 41.796875 56.203125 29.59375 
z
M 47.21875 32.234375 
Q 47.125 39.59375 43.09375 43.984375 
Q 39.0625 48.390625 32.421875 48.390625 
Q 24.90625 48.390625 20.390625 44.140625 
Q 15.875 39.890625 15.1875 32.171875 
z
" id="DejaVuSans-101"/>
      <path id="DejaVuSans-32"/>
      <path d="M 8.59375 75.984375 
L 29.296875 75.984375 
L 29.296875 69 
L 17.578125 69 
L 17.578125 -6.203125 
L 29.296875 -6.203125 
L 29.296875 -13.1875 
L 8.59375 -13.1875 
z
" id="DejaVuSans-91"/>
      <path d="M 8.5 21.578125 
L 8.5 54.6875 
L 17.484375 54.6875 
L 17.484375 21.921875 
Q 17.484375 14.15625 20.5 10.265625 
Q 23.53125 6.390625 29.59375 6.390625 
Q 36.859375 6.390625 41.078125 11.03125 
Q 45.3125 15.671875 45.3125 23.6875 
L 45.3125 54.6875 
L 54.296875 54.6875 
L 54.296875 0 
L 45.3125 0 
L 45.3125 8.40625 
Q 42.046875 3.421875 37.71875 1 
Q 33.40625 -1.421875 27.6875 -1.421875 
Q 18.265625 -1.421875 13.375 4.4375 
Q 8.5 10.296875 8.5 21.578125 
z
M 31.109375 56 
z
" id="DejaVuSans-117"/>
      <path d="M 53.515625 70.515625 
L 53.515625 60.890625 
Q 47.90625 63.578125 42.921875 64.890625 
Q 37.9375 66.21875 33.296875 66.21875 
Q 25.25 66.21875 20.875 63.09375 
Q 16.5 59.96875 16.5 54.203125 
Q 16.5 49.359375 19.40625 46.890625 
Q 22.3125 44.4375 30.421875 42.921875 
L 36.375 41.703125 
Q 47.40625 39.59375 52.65625 34.296875 
Q 57.90625 29 57.90625 20.125 
Q 57.90625 9.515625 50.796875 4.046875 
Q 43.703125 -1.421875 29.984375 -1.421875 
Q 24.8125 -1.421875 18.96875 -0.25 
Q 13.140625 0.921875 6.890625 3.21875 
L 6.890625 13.375 
Q 12.890625 10.015625 18.65625 8.296875 
Q 24.421875 6.59375 29.984375 6.59375 
Q 38.421875 6.59375 43.015625 9.90625 
Q 47.609375 13.234375 47.609375 19.390625 
Q 47.609375 24.75 44.3125 27.78125 
Q 41.015625 30.8125 33.5 32.328125 
L 27.484375 33.5 
Q 16.453125 35.6875 11.515625 40.375 
Q 6.59375 45.0625 6.59375 53.421875 
Q 6.59375 63.09375 13.40625 68.65625 
Q 20.21875 74.21875 32.171875 74.21875 
Q 37.3125 74.21875 42.625 73.28125 
Q 47.953125 72.359375 53.515625 70.515625 
z
" id="DejaVuSans-83"/>
      <path d="M 30.421875 75.984375 
L 30.421875 -13.1875 
L 9.71875 -13.1875 
L 9.71875 -6.203125 
L 21.390625 -6.203125 
L 21.390625 69 
L 9.71875 69 
L 9.71875 75.984375 
z
" id="DejaVuSans-93"/>
     </defs>
     <g style="fill:#ffffff;" transform="translate(212.092812 335.860562)scale(0.1 -0.1)">
      <use xlink:href="#DejaVuSans-84"/>
      <use x="57.958984" xlink:href="#DejaVuSans-105"/>
      <use x="85.742188" xlink:href="#DejaVuSans-109"/>
      <use x="183.154297" xlink:href="#DejaVuSans-101"/>
      <use x="244.677734" xlink:href="#DejaVuSans-32"/>
      <use x="276.464844" xlink:href="#DejaVuSans-91"/>
      <use x="315.478516" xlink:href="#DejaVuSans-117"/>
      <use x="378.857422" xlink:href="#DejaVuSans-83"/>
      <use x="442.333984" xlink:href="#DejaVuSans-93"/>
     </g>
    </g>
   </g>
   <g id="matplotlib.axis_2">
    <g id="ytick_1">
     <g id="line2d_19">
      <path clip-path="url(#p1773bfc1f0)" d="M 57.6 277.73073 
L 414.72 277.73073 
" style="fill:none;stroke:#404040;stroke-linecap:square;"/>
     </g>
     <g id="line2d_20">
      <defs>
       <path d="M 0 0 
L -3.5 0 
" id="m1abe1ea1c1" style="stroke:#ffffff;stroke-width:0.8;"/>
      </defs>
      <g>
       <use style="fill:#ffffff;stroke:#ffffff;stroke-width:0.8;" x="57.6" xlink:href="#m1abe1ea1c1" y="277.73073"/>
      </g>
     </g>
     <g id="text_11">
      <!-- −5 -->
      <defs>
       <path d="M 10.59375 35.5 
L 73.1875 35.5 
L 73.1875 27.203125 
L 10.59375 27.203125 
z
" id="DejaVuSans-8722"/>
       <path d="M 10.796875 72.90625 
L 49.515625 72.90625 
L 49.515625 64.59375 
L 19.828125 64.59375 
L 19.828125 46.734375 
Q 21.96875 47.46875 24.109375 47.828125 
Q 26.265625 48.1875 28.421875 48.1875 
Q 40.625 48.1875 47.75 41.5 
Q 54.890625 34.8125 54.890625 23.390625 
Q 54.890625 11.625 47.5625 5.09375 
Q 40.234375 -1.421875 26.90625 -1.421875 
Q 22.3125 -1.421875 17.546875 -0.640625 
Q 12.796875 0.140625 7.71875 1.703125 
L 7.71875 11.625 
Q 12.109375 9.234375 16.796875 8.0625 
Q 21.484375 6.890625 26.703125 6.890625 
Q 35.15625 6.890625 40.078125 11.328125 
Q 45.015625 15.765625 45.015625 23.390625 
Q 45.015625 31 40.078125 35.4375 
Q 35.15625 39.890625 26.703125 39.890625 
Q 22.75 39.890625 18.8125 39.015625 
Q 14.890625 38.140625 10.796875 36.28125 
z
" id="DejaVuSans-53"/>
      </defs>
      <g style="fill:#ffffff;" transform="translate(35.857813 281.529949)scale(0.1 -0.1)">
       <use xlink:href="#DejaVuSans-8722"/>
       <use x="83.789062" xlink:href="#DejaVuSans-53"/>
      </g>
     </g>
    </g>
    <g id="ytick_2">
     <g id="line2d_21">
      <path clip-path="url(#p1773bfc1f0)" d="M 57.6 220.009791 
L 414.72 220.009791 
" style="fill:none;stroke:#404040;stroke-linecap:square;"/>
     </g>
     <g id="line2d_22">
      <g>
       <use style="fill:#ffffff;stroke:#ffffff;stroke-width:0.8;" x="57.6" xlink:href="#m1abe1ea1c1" y="220.009791"/>
      </g>
     </g>
     <g id="text_12">
      <!-- 0 -->
      <g style="fill:#ffffff;" transform="translate(44.2375 223.80901)scale(0.1 -0.1)">
       <use xlink:href="#DejaVuSans-48"/>
      </g>
     </g>
    </g>
    <g id="ytick_3">
     <g id="line2d_23">
      <path clip-path="url(#p1773bfc1f0)" d="M 57.6 162.288852 
L 414.72 162.288852 
" style="fill:none;stroke:#404040;stroke-linecap:square;"/>
     </g>
     <g id="line2d_24">
      <g>
       <use style="fill:#ffffff;stroke:#ffffff;stroke-width:0.8;" x="57.6" xlink:href="#m1abe1ea1c1" y="162.288852"/>
      </g>
     </g>
     <g id="text_13">
      <!-- 5 -->
      <g style="fill:#ffffff;" transform="translate(44.2375 166.088071)scale(0.1 -0.1)">
       <use xlink:href="#DejaVuSans-53"/>
      </g>
     </g>
    </g>
    <g id="ytick_4">
     <g id="line2d_25">
      <path clip-path="url(#p1773bfc1f0)" d="M 57.6 104.567913 
L 414.72 104.567913 
" style="fill:none;stroke:#404040;stroke-linecap:square;"/>
     </g>
     <g id="line2d_26">
      <g>
       <use style="fill:#ffffff;stroke:#ffffff;stroke-width:0.8;" x="57.6" xlink:href="#m1abe1ea1c1" y="104.567913"/>
      </g>
     </g>
     <g id="text_14">
      <!-- 10 -->
      <g style="fill:#ffffff;" transform="translate(37.875 108.367132)scale(0.1 -0.1)">
       <use xlink:href="#DejaVuSans-49"/>
       <use x="63.623047" xlink:href="#DejaVuSans-48"/>
      </g>
     </g>
    </g>
    <g id="ytick_5">
     <g id="line2d_27">
      <path clip-path="url(#p1773bfc1f0)" d="M 57.6 46.846974 
L 414.72 46.846974 
" style="fill:none;stroke:#404040;stroke-linecap:square;"/>
     </g>
     <g id="line2d_28">
      <g>
       <use style="fill:#ffffff;stroke:#ffffff;stroke-width:0.8;" x="57.6" xlink:href="#m1abe1ea1c1" y="46.846974"/>
      </g>
     </g>
     <g id="text_15">
      <!-- 15 -->
      <g style="fill:#ffffff;" transform="translate(37.875 50.646193)scale(0.1 -0.1)">
       <use xlink:href="#DejaVuSans-49"/>
       <use x="63.623047" xlink:href="#DejaVuSans-53"/>
      </g>
     </g>
    </g>
    <g id="text_16">
     <!-- Voltage [V] -->
     <defs>
      <path d="M 28.609375 0 
L 0.78125 72.90625 
L 11.078125 72.90625 
L 34.1875 11.53125 
L 57.328125 72.90625 
L 67.578125 72.90625 
L 39.796875 0 
z
" id="DejaVuSans-86"/>
      <path d="M 30.609375 48.390625 
Q 23.390625 48.390625 19.1875 42.75 
Q 14.984375 37.109375 14.984375 27.296875 
Q 14.984375 17.484375 19.15625 11.84375 
Q 23.34375 6.203125 30.609375 6.203125 
Q 37.796875 6.203125 41.984375 11.859375 
Q 46.1875 17.53125 46.1875 27.296875 
Q 46.1875 37.015625 41.984375 42.703125 
Q 37.796875 48.390625 30.609375 48.390625 
z
M 30.609375 56 
Q 42.328125 56 49.015625 48.375 
Q 55.71875 40.765625 55.71875 27.296875 
Q 55.71875 13.875 49.015625 6.21875 
Q 42.328125 -1.421875 30.609375 -1.421875 
Q 18.84375 -1.421875 12.171875 6.21875 
Q 5.515625 13.875 5.515625 27.296875 
Q 5.515625 40.765625 12.171875 48.375 
Q 18.84375 56 30.609375 56 
z
" id="DejaVuSans-111"/>
      <path d="M 9.421875 75.984375 
L 18.40625 75.984375 
L 18.40625 0 
L 9.421875 0 
z
" id="DejaVuSans-108"/>
      <path d="M 18.3125 70.21875 
L 18.3125 54.6875 
L 36.8125 54.6875 
L 36.8125 47.703125 
L 18.3125 47.703125 
L 18.3125 18.015625 
Q 18.3125 11.328125 20.140625 9.421875 
Q 21.96875 7.515625 27.59375 7.515625 
L 36.8125 7.515625 
L 36.8125 0 
L 27.59375 0 
Q 17.1875 0 13.234375 3.875 
Q 9.28125 7.765625 9.28125 18.015625 
L 9.28125 47.703125 
L 2.6875 47.703125 
L 2.6875 54.6875 
L 9.28125 54.6875 
L 9.28125 70.21875 
z
" id="DejaVuSans-116"/>
      <path d="M 34.28125 27.484375 
Q 23.390625 27.484375 19.1875 25 
Q 14.984375 22.515625 14.984375 16.5 
Q 14.984375 11.71875 18.140625 8.90625 
Q 21.296875 6.109375 26.703125 6.109375 
Q 34.1875 6.109375 38.703125 11.40625 
Q 43.21875 16.703125 43.21875 25.484375 
L 43.21875 27.484375 
z
M 52.203125 31.203125 
L 52.203125 0 
L 43.21875 0 
L 43.21875 8.296875 
Q 40.140625 3.328125 35.546875 0.953125 
Q 30.953125 -1.421875 24.3125 -1.421875 
Q 15.921875 -1.421875 10.953125 3.296875 
Q 6 8.015625 6 15.921875 
Q 6 25.140625 12.171875 29.828125 
Q 18.359375 34.515625 30.609375 34.515625 
L 43.21875 34.515625 
L 43.21875 35.40625 
Q 43.21875 41.609375 39.140625 45 
Q 35.0625 48.390625 27.6875 48.390625 
Q 23 48.390625 18.546875 47.265625 
Q 14.109375 46.140625 10.015625 43.890625 
L 10.015625 52.203125 
Q 14.9375 54.109375 19.578125 55.046875 
Q 24.21875 56 28.609375 56 
Q 40.484375 56 46.34375 49.84375 
Q 52.203125 43.703125 52.203125 31.203125 
z
" id="DejaVuSans-97"/>
      <path d="M 45.40625 27.984375 
Q 45.40625 37.75 41.375 43.109375 
Q 37.359375 48.484375 30.078125 48.484375 
Q 22.859375 48.484375 18.828125 43.109375 
Q 14.796875 37.75 14.796875 27.984375 
Q 14.796875 18.265625 18.828125 12.890625 
Q 22.859375 7.515625 30.078125 7.515625 
Q 37.359375 7.515625 41.375 12.890625 
Q 45.40625 18.265625 45.40625 27.984375 
z
M 54.390625 6.78125 
Q 54.390625 -7.171875 48.1875 -13.984375 
Q 42 -20.796875 29.203125 -20.796875 
Q 24.46875 -20.796875 20.265625 -20.09375 
Q 16.0625 -19.390625 12.109375 -17.921875 
L 12.109375 -9.1875 
Q 16.0625 -11.328125 19.921875 -12.34375 
Q 23.78125 -13.375 27.78125 -13.375 
Q 36.625 -13.375 41.015625 -8.765625 
Q 45.40625 -4.15625 45.40625 5.171875 
L 45.40625 9.625 
Q 42.625 4.78125 38.28125 2.390625 
Q 33.9375 0 27.875 0 
Q 17.828125 0 11.671875 7.65625 
Q 5.515625 15.328125 5.515625 27.984375 
Q 5.515625 40.671875 11.671875 48.328125 
Q 17.828125 56 27.875 56 
Q 33.9375 56 38.28125 53.609375 
Q 42.625 51.21875 45.40625 46.390625 
L 45.40625 54.6875 
L 54.390625 54.6875 
z
" id="DejaVuSans-103"/>
     </defs>
     <g style="fill:#ffffff;" transform="translate(29.778125 202.195188)rotate(-90)scale(0.1 -0.1)">
      <use xlink:href="#DejaVuSans-86"/>
      <use x="60.658203" xlink:href="#DejaVuSans-111"/>
      <use x="121.839844" xlink:href="#DejaVuSans-108"/>
      <use x="149.623047" xlink:href="#DejaVuSans-116"/>
      <use x="188.832031" xlink:href="#DejaVuSans-97"/>
      <use x="250.111328" xlink:href="#DejaVuSans-103"/>
      <use x="313.587891" xlink:href="#DejaVuSans-101"/>
      <use x="375.111328" xlink:href="#DejaVuSans-32"/>
      <use x="406.898438" xlink:href="#DejaVuSans-91"/>
      <use x="445.912109" xlink:href="#DejaVuSans-86"/>
      <use x="514.320312" xlink:href="#DejaVuSans-93"/>
     </g>
    </g>
   </g>
   <g id="line2d_29">
    <path clip-path="url(#p1773bfc1f0)" d="M 73.832727 240.327562 
L 73.991327 210.312673 
L 74.149928 232.708398 
L 74.308528 232.708398 
L 74.467128 204.540579 
L 74.625728 204.540579 
L 74.784328 231.669421 
L 74.942928 200.730998 
L 75.101529 200.730998 
L 75.260129 230.630444 
L 75.418729 199.114811 
L 75.577329 199.114811 
L 75.735929 229.822351 
L 75.894529 198.653044 
L 76.05313 198.653044 
L 76.21173 228.667932 
L 76.37033 199.230253 
L 76.52893 199.230253 
L 76.68753 227.167188 
L 76.84613 200.26923 
L 77.004731 200.26923 
L 77.163331 225.435559 
L 77.321931 201.539091 
L 77.480531 201.539091 
L 77.639131 223.934815 
L 77.797731 203.270719 
L 77.956332 203.270719 
L 78.114932 222.087745 
L 78.273532 204.886905 
L 78.432132 204.886905 
L 78.590732 220.471559 
L 78.749333 220.471559 
L 78.907933 121.768753 
L 79.066533 116.804752 
L 79.225133 115.996659 
L 79.383733 115.996659 
L 79.542333 115.41945 
L 79.700934 114.034147 
L 79.859534 114.034147 
L 80.176734 112.187077 
L 80.335334 112.187077 
L 80.493934 112.302519 
L 80.652535 229.360583 
L 80.811135 229.360583 
L 80.969735 274.498358 
L 81.128335 281.886638 
L 81.286935 281.886638 
L 81.604136 293.661709 
L 81.762736 293.661709 
L 81.921336 294.700686 
L 82.079936 294.700686 
L 82.397136 296.77864 
L 82.555737 296.77864 
L 82.714337 297.933059 
L 83.031537 298.048501 
L 83.190137 297.817617 
L 83.348737 196.344206 
L 83.507338 196.344206 
L 83.665938 252.333517 
L 83.824538 196.57509 
L 83.983138 196.57509 
L 84.141738 243.444492 
L 84.300338 194.266252 
L 84.458939 194.266252 
L 84.617539 239.519469 
L 84.776139 193.458159 
L 84.934739 193.458159 
L 85.093339 236.287096 
L 85.251939 193.919927 
L 85.41054 193.919927 
L 85.56914 233.516491 
L 85.72774 195.536113 
L 85.88634 195.536113 
L 86.04494 230.630444 
L 86.20354 197.614067 
L 86.362141 197.614067 
L 86.520741 227.975281 
L 86.679341 227.975281 
L 86.837941 199.922904 
L 86.996541 225.435559 
L 87.155141 225.435559 
L 87.313742 202.231742 
L 87.472342 223.01128 
L 87.630942 223.01128 
L 87.789542 204.540579 
L 87.948142 220.817884 
L 88.106742 220.817884 
L 88.265343 206.38765 
L 88.423943 218.855372 
L 88.582543 218.855372 
L 88.741143 120.845218 
L 88.899743 116.573868 
L 89.058343 115.765775 
L 89.216944 115.765775 
L 89.375544 115.534891 
L 89.534144 115.534891 
L 89.851344 112.648844 
L 90.009944 112.648844 
L 90.168545 112.187077 
L 90.327145 112.533403 
L 90.485745 112.533403 
L 90.644345 245.176121 
L 90.802945 275.306451 
L 90.961545 275.306451 
L 91.278746 290.660221 
L 91.437346 290.660221 
L 91.595946 293.892593 
L 91.754546 294.700686 
L 91.913147 294.700686 
L 92.230347 297.009524 
L 92.388947 297.009524 
L 92.547547 297.817617 
L 92.706147 298.048501 
L 92.864748 298.048501 
L 93.023348 296.77864 
L 93.181948 185.146344 
L 93.340548 185.146344 
L 93.499148 259.26003 
L 93.657748 187.455182 
L 93.816349 187.455182 
L 93.974949 249.332028 
L 94.133549 249.332028 
L 94.292149 188.147833 
L 94.450749 243.213609 
L 94.609349 243.213609 
L 94.76795 189.879461 
L 94.92655 238.134166 
L 95.08515 238.134166 
L 95.24375 192.765508 
L 95.40235 233.631933 
L 95.56095 233.631933 
L 95.719551 195.766997 
L 95.878151 229.706909 
L 96.036751 229.706909 
L 96.195351 199.114811 
L 96.353951 226.128211 
L 96.512551 226.128211 
L 96.671152 202.1163 
L 96.829752 223.01128 
L 96.988352 223.01128 
L 97.146952 205.002347 
L 97.305552 220.356117 
L 97.464152 220.356117 
L 97.622753 207.426626 
L 97.781353 218.047279 
L 97.939953 218.047279 
L 98.098553 209.273697 
L 98.257153 209.273697 
L 98.415753 216.084767 
L 98.574354 119.806241 
L 98.732954 116.458426 
L 98.891554 116.458426 
L 99.208754 115.304008 
L 99.367354 115.304008 
L 99.684555 112.533403 
L 99.843155 112.533403 
L 100.001755 112.302519 
L 100.160355 112.764286 
L 100.318955 112.764286 
L 100.477556 255.335006 
L 100.636156 275.652776 
L 100.794756 275.652776 
L 100.953356 284.426359 
L 101.111956 284.426359 
L 101.429157 294.123477 
L 101.587757 294.123477 
L 101.904957 295.855105 
L 102.063557 295.855105 
L 102.380758 297.933059 
L 102.539358 297.933059 
L 102.697958 298.048501 
L 102.856558 292.738174 
L 103.015158 292.738174 
L 103.173758 182.606623 
L 103.332359 261.1071 
L 103.490959 261.1071 
L 103.649559 185.261786 
L 103.808159 249.909238 
L 103.966759 249.909238 
L 104.12536 188.032391 
L 104.28396 242.05919 
L 104.44256 242.05919 
L 104.60116 191.611089 
L 104.75976 235.594445 
L 104.91836 235.594445 
L 105.076961 195.536113 
L 105.235561 230.284118 
L 105.394161 230.284118 
L 105.552761 199.576579 
L 105.711361 199.576579 
L 105.869961 225.897327 
L 106.028562 203.155277 
L 106.187162 203.155277 
L 106.345762 222.087745 
L 106.504362 206.38765 
L 106.662962 206.38765 
L 106.821562 219.086256 
L 106.980163 208.927371 
L 107.138763 208.927371 
L 107.297363 216.431093 
L 107.455963 211.120767 
L 107.614563 211.120767 
L 107.773163 214.353139 
L 107.931764 212.852395 
L 108.090364 212.852395 
L 108.248964 212.736953 
L 108.407564 119.11359 
L 108.566164 119.11359 
L 108.724764 116.227543 
L 108.883365 115.881217 
L 109.041965 115.881217 
L 109.200565 115.304008 
L 109.359165 113.803263 
L 109.517765 113.803263 
L 109.834966 112.187077 
L 109.993566 112.187077 
L 110.152166 113.687821 
L 110.310766 262.030635 
L 110.469366 262.030635 
L 110.786567 285.811662 
L 110.945167 285.811662 
L 111.262367 294.238919 
L 111.420967 294.238919 
L 112.213968 297.933059 
L 112.372568 297.933059 
L 112.531168 298.163943 
L 112.689769 282.694731 
L 112.848369 282.694731 
L 113.006969 189.18681 
L 113.165569 189.18681 
L 113.324169 256.951192 
L 113.482769 189.533135 
L 113.64137 189.533135 
L 113.79997 245.291563 
L 113.95857 193.573601 
L 114.11717 193.573601 
L 114.27577 236.51798 
L 114.43437 197.729509 
L 114.592971 197.729509 
L 114.751571 229.706909 
L 114.910171 201.885416 
L 115.068771 201.885416 
L 115.227371 224.512024 
L 115.385971 205.925882 
L 115.544572 205.925882 
L 115.703172 220.009791 
L 115.861772 209.158255 
L 116.020372 209.158255 
L 116.178972 216.777419 
L 116.337573 211.813418 
L 116.496173 211.813418 
L 116.654773 213.891372 
L 116.971973 213.77593 
L 117.130573 211.697976 
L 117.289174 211.697976 
L 117.447774 215.392116 
L 117.606374 210.543557 
L 117.764974 210.543557 
L 117.923574 216.315651 
L 118.082174 209.273697 
L 118.240775 118.420938 
L 118.399375 118.420938 
L 118.557975 116.227543 
L 118.716575 115.881217 
L 118.875175 115.881217 
L 119.033775 114.957682 
L 119.192376 113.341496 
L 119.350976 113.341496 
L 119.509576 112.533403 
L 119.668176 112.533403 
L 119.826776 112.302519 
L 119.985376 121.306985 
L 120.143977 121.306985 
L 120.302577 266.532868 
L 120.461177 277.384405 
L 120.619777 277.384405 
L 120.936977 292.276407 
L 121.095578 292.276407 
L 121.412778 295.162454 
L 121.571378 295.162454 
L 121.888578 297.471291 
L 122.047179 297.471291 
L 122.205779 298.163943 
L 122.522979 298.279385 
L 122.681579 266.763752 
L 122.840179 202.231742 
L 122.99878 202.231742 
L 123.15738 247.254074 
L 123.31598 199.576579 
L 123.47458 199.576579 
L 123.63318 235.94077 
L 123.79178 203.039835 
L 123.950381 203.039835 
L 124.108981 227.628955 
L 124.267581 227.628955 
L 124.426181 206.733975 
L 124.584781 221.279652 
L 124.743381 221.279652 
L 124.901982 210.312673 
L 125.060582 216.777419 
L 125.219182 216.777419 
L 125.377782 213.429604 
L 125.536382 212.967837 
L 125.694982 212.967837 
L 125.853583 215.623 
L 126.012183 210.543557 
L 126.170783 210.543557 
L 126.329383 217.585512 
L 126.487983 208.696487 
L 126.646583 208.696487 
L 126.805184 218.624489 
L 126.963784 207.772952 
L 127.122384 207.772952 
L 127.280984 219.086256 
L 127.439584 207.311185 
L 127.598184 207.311185 
L 127.756785 218.970814 
L 127.915385 207.426626 
L 128.073985 125.578335 
L 128.232585 117.959171 
L 128.391185 116.227543 
L 128.549785 116.227543 
L 128.708386 115.765775 
L 128.866986 114.957682 
L 129.025586 114.957682 
L 129.342786 112.533403 
L 129.501387 112.533403 
L 129.659987 112.302519 
L 129.818587 145.318896 
L 129.977187 145.318896 
L 130.135787 269.534357 
L 130.294387 269.534357 
L 130.611588 287.889616 
L 130.770188 287.889616 
L 130.928788 292.969058 
L 131.087388 294.469803 
L 131.245988 294.469803 
L 132.038989 298.163943 
L 132.197589 298.163943 
L 132.35619 298.048501 
L 132.51479 246.330539 
L 132.67339 246.330539 
L 132.83199 218.624489 
L 132.99059 233.285607 
L 133.14919 233.285607 
L 133.307791 212.736953 
L 133.466391 223.588489 
L 133.624991 223.588489 
L 133.783591 214.814907 
L 133.942191 216.431093 
L 134.100791 216.431093 
L 134.259392 217.123744 
L 134.417992 211.467092 
L 134.576592 211.467092 
L 134.735192 219.31714 
L 134.893792 219.31714 
L 135.052392 208.003836 
L 135.210993 220.817884 
L 135.369593 220.817884 
L 135.528193 206.272208 
L 135.686793 221.856861 
L 135.845393 221.856861 
L 136.003993 205.233231 
L 136.162594 221.972303 
L 136.321194 221.972303 
L 136.479794 204.771463 
L 136.638394 221.856861 
L 136.796994 221.856861 
L 136.955594 204.886905 
L 137.114195 221.395094 
L 137.272795 221.395094 
L 137.431395 205.348673 
L 137.589995 220.702442 
L 137.748595 220.702442 
L 137.907195 124.07759 
L 138.065796 117.612845 
L 138.224396 117.612845 
L 138.382996 116.112101 
L 138.541596 115.765775 
L 138.700196 115.765775 
L 139.334597 112.302519 
L 139.651797 112.417961 
L 139.968998 271.958636 
L 140.127598 271.958636 
L 140.444798 288.697709 
L 140.603398 288.697709 
L 140.761998 293.199942 
L 140.920599 294.469803 
L 141.079199 294.469803 
L 141.396399 296.547756 
L 141.554999 296.547756 
L 141.7136 297.702175 
L 141.8722 297.702175 
L 142.0308 298.163943 
L 142.348 298.048501 
L 142.5066 224.165699 
L 142.665201 234.0937 
L 142.823801 234.0937 
L 142.982401 217.47007 
L 143.141001 226.70542 
L 143.299601 226.70542 
L 143.458201 210.428115 
L 143.616802 226.70542 
L 143.775402 226.70542 
L 143.934002 205.348673 
L 144.092602 226.936304 
L 144.251202 226.936304 
L 144.409802 202.578068 
L 144.568403 227.167188 
L 144.727003 227.167188 
L 144.885603 201.192765 
L 145.044203 226.820862 
L 145.202803 226.820862 
L 145.361403 200.846439 
L 145.520004 226.128211 
L 145.678604 226.128211 
L 145.837204 201.308207 
L 145.995804 224.973792 
L 146.154404 224.973792 
L 146.313004 202.231742 
L 146.471605 202.231742 
L 146.630205 223.703931 
L 146.788805 203.270719 
L 146.947405 203.270719 
L 147.106005 222.434071 
L 147.264605 204.656021 
L 147.423206 204.656021 
L 147.581806 220.933326 
L 147.740406 122.80773 
L 147.899006 117.151078 
L 148.057606 117.151078 
L 148.374807 115.765775 
L 148.533407 115.765775 
L 148.692007 114.495914 
L 148.850607 114.495914 
L 149.167807 112.417961 
L 149.326408 112.417961 
L 149.485008 112.302519 
L 149.643608 214.930349 
L 149.802208 214.930349 
L 149.960808 273.574823 
L 150.119408 281.193987 
L 150.278009 281.193987 
L 150.595209 293.546268 
L 150.753809 293.546268 
L 151.071009 295.624221 
L 151.22961 295.624221 
L 151.54681 297.817617 
L 151.70541 297.817617 
L 151.86401 298.163943 
L 152.02261 297.817617 
L 152.181211 297.817617 
L 152.339811 203.847928 
L 152.498411 247.369516 
L 152.657011 247.369516 
L 152.815611 202.231742 
L 152.974211 239.057701 
L 153.132812 239.057701 
L 153.291412 198.306718 
L 153.450012 198.306718 
L 153.608612 236.402538 
L 153.767212 196.228764 
L 153.925812 196.228764 
L 154.084413 234.0937 
L 154.243013 195.766997 
L 154.401613 195.766997 
L 154.560213 232.477514 
L 154.718813 196.690532 
L 154.877414 196.690532 
L 155.036014 230.168676 
L 155.194614 198.075834 
L 155.353214 198.075834 
L 155.511814 227.975281 
L 155.670414 199.807462 
L 155.829015 199.807462 
L 155.987615 225.897327 
L 156.146215 201.769974 
L 156.304815 201.769974 
L 156.463415 223.703931 
L 156.622015 203.847928 
L 156.780616 203.847928 
L 156.939216 221.741419 
L 157.097816 205.464115 
L 157.256416 205.464115 
L 157.415016 219.778907 
L 157.573616 207.195743 
L 157.732217 121.653311 
L 157.890817 117.035636 
L 158.049417 116.112101 
L 158.208017 116.112101 
L 158.366617 115.650333 
L 158.525217 114.380473 
L 158.683818 114.380473 
L 158.842418 112.879728 
L 159.001018 112.533403 
L 159.159618 112.533403 
L 159.318218 112.648844 
L 159.476818 235.94077 
L 159.635419 235.94077 
L 159.794019 274.729241 
L 159.952619 282.463847 
L 160.111219 282.463847 
L 160.269819 290.198453 
L 160.428419 290.198453 
L 160.58702 293.777151 
L 160.74562 294.700686 
L 160.90422 294.700686 
L 161.22142 296.894082 
L 161.38002 296.894082 
L 161.697221 298.163943 
L 161.855821 298.163943 
L 162.014421 297.586733 
L 162.173021 189.417693 
L 162.331621 189.417693 
L 162.490222 256.489425 
L 162.648822 191.03388 
L 162.807422 191.03388 
L 162.966022 247.369516 
L 163.124622 190.341228 
L 163.283222 190.341228 
L 163.441823 242.05919 
L 163.600423 190.802996 
L 163.759023 190.802996 
L 163.917623 237.903282 
L 164.076223 192.534624 
L 164.234823 192.534624 
L 164.393424 233.978258 
L 164.552024 195.074345 
L 164.710624 195.074345 
L 164.869224 230.630444 
L 165.027824 230.630444 
L 165.186424 198.075834 
L 165.345025 227.28263 
L 165.503625 227.28263 
L 165.662225 200.961881 
L 165.820825 224.396583 
L 165.979425 224.396583 
L 166.138025 203.617044 
L 166.296626 221.741419 
L 166.455226 221.741419 
L 166.613826 205.81044 
L 166.772426 219.432582 
L 166.931026 219.432582 
L 167.089627 207.888394 
L 167.248227 217.47007 
L 167.406827 217.47007 
L 167.565427 120.845218 
L 167.724027 116.68931 
L 167.882627 116.68931 
L 168.358428 115.534891 
L 168.675628 112.879728 
L 168.834228 112.879728 
L 168.992829 112.417961 
L 169.151429 112.764286 
L 169.310029 112.764286 
L 169.468629 249.332028 
L 169.627229 275.421893 
L 169.785829 275.421893 
L 170.10303 291.006546 
L 170.26163 291.006546 
L 170.57883 294.93157 
L 170.73743 294.93157 
L 171.054631 297.240408 
L 171.213231 297.240408 
L 171.530431 298.163943 
L 171.689031 298.163943 
L 171.847632 295.162454 
L 172.006232 295.162454 
L 172.164832 182.606623 
L 172.323432 260.991658 
L 172.482032 260.991658 
L 172.640632 185.608111 
L 172.799233 250.140121 
L 172.957833 250.140121 
L 173.116433 187.455182 
L 173.275033 243.213609 
L 173.433633 243.213609 
L 173.592233 190.341228 
L 173.750834 237.095189 
L 173.909434 237.095189 
L 174.068034 193.689043 
L 174.226634 232.362072 
L 174.385234 232.362072 
L 174.543834 197.498625 
L 174.702435 228.090723 
L 174.861035 228.090723 
L 175.019635 201.077323 
L 175.178235 224.396583 
L 175.336835 224.396583 
L 175.495435 204.309696 
L 175.654036 221.16421 
L 175.812636 221.16421 
L 175.971236 206.964859 
L 176.129836 218.278163 
L 176.288436 218.278163 
L 176.447036 209.273697 
L 176.605637 209.273697 
L 176.764237 216.084767 
L 176.922837 211.120767 
L 177.081437 211.120767 
L 177.240037 214.468581 
L 177.398637 119.690799 
L 177.557238 116.573868 
L 177.715838 116.573868 
L 178.033038 115.41945 
L 178.191638 114.265031 
L 178.350238 114.265031 
L 178.667439 112.302519 
L 178.826039 112.302519 
L 178.984639 113.226054 
L 179.143239 257.874727 
L 179.301839 257.874727 
L 179.61904 284.888127 
L 179.77764 284.888127 
L 180.09484 294.123477 
L 180.253441 294.123477 
L 180.570641 296.085989 
L 180.729241 296.085989 
L 181.046441 298.048501 
L 181.363642 298.048501 
L 181.522242 288.120499 
L 181.680842 288.120499 
L 181.839442 184.91546 
L 181.998042 259.721797 
L 182.156643 259.721797 
L 182.315243 186.76253 
L 182.473843 247.831284 
L 182.632443 247.831284 
L 182.791043 190.45667 
L 182.949643 190.45667 
L 183.108244 239.63491 
L 183.266844 194.266252 
L 183.425444 194.266252 
L 183.584044 232.82384 
L 183.742644 198.653044 
L 183.901244 198.653044 
L 184.059845 227.513513 
L 184.218445 202.808951 
L 184.377045 202.808951 
L 184.535645 222.780396 
L 184.694245 206.156766 
L 184.852845 206.156766 
L 185.011446 219.31714 
L 185.170046 209.158255 
L 185.328646 209.158255 
L 185.487246 216.431093 
L 185.645846 211.697976 
L 185.804446 211.697976 
L 185.963047 214.006814 
L 186.121647 213.314162 
L 186.280247 213.314162 
L 186.438847 212.390627 
L 186.597447 214.814907 
L 186.756047 214.814907 
L 186.914648 211.120767 
L 187.073248 118.998148 
L 187.231848 118.998148 
L 187.390448 116.573868 
L 187.549048 116.227543 
L 187.707648 116.227543 
L 187.866249 115.41945 
L 188.024849 114.034147 
L 188.183449 114.034147 
L 188.342049 112.764286 
L 188.500649 112.417961 
L 188.659249 112.417961 
L 188.81785 115.073124 
L 188.97645 264.108589 
L 189.13505 264.108589 
L 189.45225 286.042546 
L 189.61085 286.042546 
L 189.769451 292.160965 
L 189.928051 292.160965 
L 190.245251 294.93157 
L 190.403851 294.93157 
L 190.721052 297.35585 
L 190.879652 297.35585 
L 191.038252 298.048501 
L 191.355452 298.163943 
L 191.514052 274.844683 
L 191.672653 195.536113 
L 191.831253 195.536113 
L 191.989853 252.333517 
L 192.148453 194.497136 
L 192.307053 194.497136 
L 192.465654 240.558446 
L 192.624254 198.306718 
L 192.782854 198.306718 
L 192.941454 232.015747 
L 193.100054 202.231742 
L 193.258654 202.231742 
L 193.417255 225.204676 
L 193.575855 206.272208 
L 193.734455 206.272208 
L 193.893055 220.125233 
L 194.051655 220.125233 
L 194.210255 209.966348 
L 194.368856 216.315651 
L 194.527456 216.315651 
L 194.686056 212.736953 
L 194.844656 213.19872 
L 195.003256 213.19872 
L 195.161856 214.930349 
L 195.320457 211.120767 
L 195.479057 211.120767 
L 195.637657 216.661977 
L 195.796257 209.50458 
L 195.954857 209.50458 
L 196.113457 217.47007 
L 196.272058 208.581045 
L 196.430658 208.581045 
L 196.589258 217.931837 
L 196.747858 208.465603 
L 196.906458 126.848195 
L 197.065058 118.53638 
L 197.223659 116.342985 
L 197.382259 116.342985 
L 197.540859 116.227543 
L 197.699459 115.304008 
L 197.858059 115.304008 
L 198.17526 112.648844 
L 198.33386 112.648844 
L 198.49246 112.533403 
L 198.65106 128.118056 
L 198.80966 128.118056 
L 198.96826 267.802729 
L 199.126861 277.73073 
L 199.285461 277.73073 
L 199.602661 292.738174 
L 199.761261 292.738174 
L 200.078462 295.162454 
L 200.237062 295.162454 
L 200.554262 297.586733 
L 200.712862 297.586733 
L 200.871462 298.163943 
L 201.188663 298.048501 
L 201.347263 256.258541 
L 201.505863 256.258541 
L 201.664463 211.005325 
L 201.823063 240.327562 
L 201.981664 240.327562 
L 202.140264 206.38765 
L 202.298864 229.591467 
L 202.457464 229.591467 
L 202.616064 209.158255 
L 202.774664 221.741419 
L 202.933265 221.741419 
L 203.091865 212.275185 
L 203.250465 216.084767 
L 203.409065 216.084767 
L 203.567665 215.161232 
L 203.726265 212.044302 
L 203.884866 212.044302 
L 204.043466 217.585512 
L 204.202066 209.273697 
L 204.360666 209.273697 
L 204.519266 219.201698 
L 204.677867 207.426626 
L 204.836467 207.426626 
L 204.995067 220.125233 
L 205.153667 206.38765 
L 205.312267 206.38765 
L 205.470867 220.356117 
L 205.629468 220.356117 
L 205.788068 205.925882 
L 205.946668 220.356117 
L 206.105268 220.356117 
L 206.263868 206.041324 
L 206.422468 220.009791 
L 206.581069 220.009791 
L 206.739669 125.116567 
L 206.898269 117.728287 
L 207.056869 116.342985 
L 207.215469 116.342985 
L 207.374069 115.881217 
L 207.53267 115.881217 
L 207.69127 115.073124 
L 207.84987 113.572379 
L 208.00847 113.572379 
L 208.32567 112.417961 
L 208.484271 112.417961 
L 208.642871 157.902061 
L 208.801471 270.457892 
L 208.960071 270.457892 
L 209.277271 288.120499 
L 209.435872 288.120499 
L 209.594472 293.0845 
L 209.753072 294.469803 
L 209.911672 294.469803 
L 210.704673 298.048501 
L 211.021873 298.048501 
L 211.180473 234.0937 
L 211.339074 234.0937 
L 211.656274 224.512024 
L 211.814874 224.512024 
L 211.973474 220.702442 
L 212.132074 220.702442 
L 212.290675 216.200209 
L 212.449275 221.279652 
L 212.607875 221.279652 
L 212.766475 210.428115 
L 212.925075 222.780396 
L 213.083675 222.780396 
L 213.242276 206.38765 
L 213.400876 223.819373 
L 213.559476 223.819373 
L 213.718076 204.309696 
L 213.876676 224.512024 
L 214.035276 224.512024 
L 214.193877 203.155277 
L 214.352477 224.512024 
L 214.511077 224.512024 
L 214.669677 202.924393 
L 214.828277 224.050257 
L 214.986877 224.050257 
L 215.145478 203.039835 
L 215.304078 223.126722 
L 215.462678 223.126722 
L 215.621278 203.847928 
L 215.779878 222.087745 
L 215.938478 222.087745 
L 216.097079 204.771463 
L 216.255679 220.817884 
L 216.414279 220.817884 
L 216.572879 123.846707 
L 216.731479 117.497403 
L 216.890079 117.497403 
L 217.20728 115.996659 
L 217.36588 115.996659 
L 217.68308 113.456938 
L 217.841681 113.456938 
L 218.000281 112.648844 
L 218.317481 112.533403 
L 218.634681 272.651288 
L 218.793282 272.651288 
L 218.951882 280.270452 
L 219.110482 280.270452 
L 219.427682 293.315384 
L 219.586282 293.315384 
L 219.903483 295.50878 
L 220.062083 295.50878 
L 220.379283 297.702175 
L 220.537883 297.702175 
L 220.696484 298.163943 
L 220.855084 297.933059 
L 221.013684 297.933059 
L 221.172284 212.621511 
L 221.330884 241.597422 
L 221.489484 241.597422 
L 221.648085 208.811929 
L 221.806685 233.862817 
L 221.965285 233.862817 
L 222.123885 203.386161 
L 222.282485 232.24663 
L 222.441085 232.24663 
L 222.599686 200.038346 
L 222.758286 231.207653 
L 222.916886 231.207653 
L 223.075486 198.42216 
L 223.234086 230.168676 
L 223.392686 230.168676 
L 223.551287 198.306718 
L 223.709887 198.306718 
L 223.868487 229.014258 
L 224.027087 198.883927 
L 224.185687 198.883927 
L 224.344287 227.513513 
L 224.502888 200.153788 
L 224.661488 200.153788 
L 224.820088 225.666443 
L 224.978688 201.539091 
L 225.137288 201.539091 
L 225.295888 223.934815 
L 225.454489 203.270719 
L 225.613089 203.270719 
L 225.771689 222.203187 
L 225.930289 205.002347 
L 226.088889 205.002347 
L 226.247489 220.471559 
L 226.40609 206.618533 
L 226.56469 117.26652 
L 226.72329 117.26652 
L 226.88189 116.342985 
L 227.04049 116.342985 
L 227.19909 115.996659 
L 227.357691 114.726798 
L 227.516291 114.726798 
L 227.833491 112.764286 
L 227.992091 112.764286 
L 228.150691 112.879728 
L 228.309292 223.703931 
L 228.467892 223.703931 
L 228.626492 274.152032 
L 228.785092 281.771196 
L 228.943692 281.771196 
L 229.260893 293.661709 
L 229.419493 293.661709 
L 229.736693 295.624221 
L 229.895293 295.624221 
L 230.212494 297.817617 
L 230.371094 297.817617 
L 230.529694 298.048501 
L 230.688294 297.702175 
L 230.846894 297.702175 
L 231.005495 194.958904 
L 231.164095 194.958904 
L 231.322695 253.14161 
L 231.481295 195.536113 
L 231.639895 195.536113 
L 231.798495 243.90626 
L 231.957096 193.458159 
L 232.115696 193.458159 
L 232.274296 239.981236 
L 232.432896 192.88095 
L 232.591496 192.88095 
L 232.750096 236.633422 
L 232.908697 193.689043 
L 233.067297 193.689043 
L 233.225897 233.747375 
L 233.384497 195.420671 
L 233.543097 195.420671 
L 233.701697 230.97677 
L 233.860298 197.729509 
L 234.018898 197.729509 
L 234.177498 227.975281 
L 234.336098 200.038346 
L 234.494698 200.038346 
L 234.653298 225.435559 
L 234.811899 202.1163 
L 234.970499 202.1163 
L 235.129099 222.780396 
L 235.287699 204.656021 
L 235.446299 204.656021 
L 235.604899 220.587001 
L 235.7635 220.587001 
L 235.9221 206.733975 
L 236.0807 218.624489 
L 236.2393 218.624489 
L 236.3979 121.537869 
L 236.5565 117.035636 
L 236.715101 116.342985 
L 236.873701 116.342985 
L 237.032301 115.881217 
L 237.190901 114.495914 
L 237.349501 114.495914 
L 237.508101 112.879728 
L 237.666702 112.879728 
L 237.825302 112.533403 
L 237.983902 112.764286 
L 238.142502 112.764286 
L 238.301102 241.597422 
L 238.459702 275.306451 
L 238.618303 275.306451 
L 238.776903 282.925615 
L 238.935503 282.925615 
L 239.252703 293.777151 
L 239.411303 293.777151 
L 239.728504 295.739663 
L 239.887104 295.739663 
L 240.204304 297.817617 
L 240.362904 297.817617 
L 240.521505 298.163943 
L 240.680105 298.163943 
L 240.838705 296.547756 
L 240.997305 184.453693 
L 241.155905 184.453693 
L 241.314505 259.490914 
L 241.473106 187.224298 
L 241.631706 187.224298 
L 241.790306 249.562912 
L 241.948906 249.562912 
L 242.107506 188.147833 
L 242.266106 243.213609 
L 242.424707 243.213609 
L 242.583307 189.994903 
L 242.741907 238.018724 
L 242.900507 238.018724 
L 243.059107 192.765508 
L 243.217708 233.516491 
L 243.376308 233.516491 
L 243.534908 196.228764 
L 243.693508 196.228764 
L 243.852108 229.591467 
L 244.010708 199.345695 
L 244.169309 199.345695 
L 244.327909 225.897327 
L 244.486509 202.462626 
L 244.645109 202.462626 
L 244.803709 222.780396 
L 244.962309 222.780396 
L 245.12091 205.117789 
L 245.27951 220.125233 
L 245.43811 220.125233 
L 245.59671 207.542068 
L 245.75531 217.816395 
L 245.91391 217.816395 
L 246.072511 209.735464 
L 246.231111 209.735464 
L 246.389711 215.853884 
L 246.548311 120.498892 
L 246.706911 120.498892 
L 246.865511 116.804752 
L 247.024112 116.342985 
L 247.182712 116.342985 
L 247.341312 115.765775 
L 247.499912 114.380473 
L 247.658512 114.380473 
L 247.817112 113.226054 
L 247.975713 113.226054 
L 248.134313 112.533403 
L 248.292913 113.226054 
L 248.451513 113.226054 
L 248.610113 253.14161 
L 248.768713 275.652776 
L 248.927314 275.652776 
L 249.085914 284.080034 
L 249.244514 284.080034 
L 249.561714 294.008035 
L 249.720314 294.008035 
L 250.037515 295.970547 
L 250.196115 295.970547 
L 250.513315 297.933059 
L 250.671915 297.933059 
L 250.830516 298.163943 
L 250.989116 298.163943 
L 251.147716 291.930081 
L 251.306316 182.837506 
L 251.464916 182.837506 
L 251.623516 260.876216 
L 251.782117 185.146344 
L 251.940717 185.146344 
L 252.099317 249.793796 
L 252.257917 249.793796 
L 252.416517 188.263275 
L 252.575117 241.712864 
L 252.733718 241.712864 
L 252.892318 191.957415 
L 253.050918 235.363561 
L 253.209518 235.363561 
L 253.368118 195.997881 
L 253.526718 230.053235 
L 253.685319 230.053235 
L 253.843919 199.807462 
L 254.002519 199.807462 
L 254.161119 225.551001 
L 254.319719 203.732486 
L 254.478319 203.732486 
L 254.63692 221.856861 
L 254.79552 206.618533 
L 254.95412 206.618533 
L 255.11272 218.739931 
L 255.27132 218.739931 
L 255.429921 209.273697 
L 255.588521 216.084767 
L 255.747121 216.084767 
L 255.905721 211.467092 
L 256.064321 214.122255 
L 256.222921 214.122255 
L 256.540122 212.390627 
L 256.698722 212.390627 
L 256.857322 119.690799 
L 257.015922 119.690799 
L 257.174522 116.804752 
L 257.333123 116.342985 
L 257.491723 116.342985 
L 257.650323 115.650333 
L 257.808923 114.265031 
L 257.967523 114.265031 
L 258.126123 113.226054 
L 258.284724 113.226054 
L 258.443324 112.764286 
L 258.601924 113.803263 
L 258.760524 113.803263 
L 258.919124 260.645332 
L 259.077724 276.345428 
L 259.236325 276.345428 
L 259.553525 291.699198 
L 259.712125 291.699198 
L 259.870725 294.123477 
L 260.029325 294.123477 
L 260.346526 296.201431 
L 260.505126 296.201431 
L 260.822326 298.048501 
L 260.980926 298.048501 
L 261.298127 298.163943 
L 261.456727 281.771196 
L 261.615327 189.648577 
L 261.773927 189.648577 
L 261.932527 256.489425 
L 262.091128 190.225787 
L 262.249728 190.225787 
L 262.408328 244.829795 
L 262.566928 193.919927 
L 262.725528 193.919927 
L 262.884128 235.94077 
L 263.042729 235.94077 
L 263.201329 198.191276 
L 263.359929 229.245141 
L 263.518529 229.245141 
L 263.677129 202.462626 
L 263.835729 223.934815 
L 263.99433 223.934815 
L 264.15293 206.272208 
L 264.31153 206.272208 
L 264.47013 219.548024 
L 264.62873 209.50458 
L 264.78733 209.50458 
L 264.945931 216.200209 
L 265.104531 212.159743 
L 265.263131 212.159743 
L 265.580331 214.122255 
L 265.738931 214.122255 
L 265.897532 211.582534 
L 266.056132 211.582534 
L 266.214732 215.738442 
L 266.373332 210.197232 
L 266.531932 210.197232 
L 266.690532 216.431093 
L 266.849133 209.273697 
L 267.007733 127.887172 
L 267.166333 118.998148 
L 267.324933 118.998148 
L 267.483533 116.573868 
L 267.642133 116.227543 
L 267.800734 116.227543 
L 267.959334 115.534891 
L 268.117934 114.149589 
L 268.276534 114.149589 
L 268.435134 112.879728 
L 268.752335 112.764286 
L 268.910935 118.190055 
L 269.069535 118.190055 
L 269.228135 265.609333 
L 269.386735 277.268963 
L 269.545336 277.268963 
L 269.862536 292.276407 
L 270.021136 292.276407 
L 270.179736 294.354361 
L 270.338336 294.354361 
L 270.655537 296.201431 
L 270.814137 296.201431 
L 271.131337 298.048501 
L 271.607138 298.048501 
L 271.765738 265.378449 
L 271.924338 203.617044 
L 272.082938 203.617044 
L 272.241538 246.445981 
L 272.400139 200.500114 
L 272.558739 200.500114 
L 272.717339 235.017235 
L 272.875939 203.96337 
L 273.034539 203.96337 
L 273.193139 226.820862 
L 273.35174 226.820862 
L 273.51034 207.542068 
L 273.66894 220.587001 
L 273.82754 220.587001 
L 273.98614 211.120767 
L 274.14474 215.853884 
L 274.303341 215.853884 
L 274.461941 214.006814 
L 274.620541 214.006814 
L 274.779141 212.506069 
L 274.937741 216.431093 
L 275.096341 216.431093 
L 275.254942 210.08179 
L 275.413542 218.047279 
L 275.572142 218.047279 
L 275.730742 208.350161 
L 275.889342 218.855372 
L 276.047942 218.855372 
L 276.206543 207.426626 
L 276.365143 207.426626 
L 276.523743 219.201698 
L 276.682343 207.080301 
L 276.840943 207.080301 
L 276.999543 219.201698 
L 277.158144 206.849417 
L 277.316744 126.386428 
L 277.475344 118.420938 
L 277.633944 118.420938 
L 277.792544 116.68931 
L 277.951144 116.342985 
L 278.109745 116.342985 
L 278.744145 113.226054 
L 278.902745 112.648844 
L 279.061346 112.648844 
L 279.219946 137.122523 
L 279.378546 137.122523 
L 279.537146 268.957148 
L 279.695746 278.423382 
L 279.854346 278.423382 
L 280.171547 292.853616 
L 280.330147 292.853616 
L 280.488747 294.469803 
L 280.647347 294.469803 
L 281.440348 298.048501 
L 281.757549 298.048501 
L 281.916149 244.714353 
L 282.074749 244.714353 
L 282.233349 219.663466 
L 282.391949 219.663466 
L 282.550549 232.131188 
L 282.70915 213.77593 
L 282.86775 213.77593 
L 283.02635 222.434071 
L 283.18495 215.507558 
L 283.34355 215.507558 
L 283.660751 215.623 
L 283.819351 217.816395 
L 283.977951 210.889883 
L 284.136551 210.889883 
L 284.295151 220.009791 
L 284.453751 207.65751 
L 284.612352 207.65751 
L 284.770952 221.395094 
L 284.929552 205.81044 
L 285.088152 205.81044 
L 285.246752 222.203187 
L 285.405352 222.203187 
L 285.563953 204.771463 
L 285.722553 222.318629 
L 285.881153 222.318629 
L 286.039753 204.425138 
L 286.198353 222.087745 
L 286.356953 222.087745 
L 286.515554 204.540579 
L 286.674154 204.540579 
L 286.832754 221.395094 
L 286.991354 205.233231 
L 287.149954 205.233231 
L 287.308554 220.702442 
L 287.467155 206.156766 
L 287.625755 124.770242 
L 287.784355 117.959171 
L 287.942955 116.68931 
L 288.101555 116.68931 
L 288.260155 116.227543 
L 288.418756 116.227543 
L 288.894556 113.803263 
L 289.053156 112.879728 
L 289.370357 112.764286 
L 289.528957 172.101412 
L 289.687557 172.101412 
L 289.846157 271.265985 
L 290.004757 279.5778 
L 290.163357 279.5778 
L 290.480558 293.199942 
L 290.639158 293.199942 
L 290.956358 295.393338 
L 291.114958 295.393338 
L 291.273559 296.663198 
L 291.432159 296.663198 
L 291.749359 298.163943 
L 291.907959 298.163943 
L 292.066559 297.933059 
L 292.22516 222.318629 
L 292.38376 222.318629 
L 292.54236 235.132677 
L 292.70096 235.132677 
L 292.85956 215.969325 
L 293.018161 227.859839 
L 293.176761 227.859839 
L 293.335361 209.158255 
L 293.493961 227.513513 
L 293.652561 227.513513 
L 293.811161 204.540579 
L 293.969762 204.540579 
L 294.128362 227.628955 
L 294.286962 201.885416 
L 294.445562 201.885416 
L 294.604162 227.628955 
L 294.762762 200.846439 
L 294.921363 200.846439 
L 295.079963 227.28263 
L 295.238563 200.615556 
L 295.397163 200.615556 
L 295.555763 226.359094 
L 295.714363 226.359094 
L 295.872964 201.077323 
L 296.031564 225.204676 
L 296.190164 225.204676 
L 296.348764 202.000858 
L 296.507364 223.819373 
L 296.665964 223.819373 
L 296.824565 203.270719 
L 296.983165 203.270719 
L 297.141765 222.203187 
L 297.300365 204.540579 
L 297.458965 204.540579 
L 297.617565 220.817884 
L 297.776166 206.156766 
L 297.934766 123.615823 
L 298.093366 117.612845 
L 298.251966 116.573868 
L 298.410566 116.573868 
L 298.569166 116.227543 
L 298.727767 116.227543 
L 299.044967 113.687821 
L 299.203567 113.687821 
L 299.362167 112.879728 
L 299.679368 112.764286 
L 299.996568 273.343939 
L 300.155168 273.343939 
L 300.313768 280.963103 
L 300.472368 280.963103 
L 300.789569 293.546268 
L 300.948169 293.546268 
L 301.265369 295.50878 
L 301.423969 295.50878 
L 301.58257 296.77864 
L 301.74117 296.77864 
L 302.05837 298.163943 
L 302.21697 298.163943 
L 302.37557 297.933059 
L 302.534171 202.1163 
L 302.692771 202.1163 
L 302.851371 248.177609 
L 303.009971 248.177609 
L 303.168571 201.077323 
L 303.327171 239.981236 
L 303.485772 239.981236 
L 303.644372 197.614067 
L 303.802972 237.095189 
L 303.961572 237.095189 
L 304.120172 195.651555 
L 304.278772 234.67091 
L 304.437373 234.67091 
L 304.595973 195.420671 
L 304.754573 195.420671 
L 304.913173 232.592956 
L 305.071773 196.459648 
L 305.230373 196.459648 
L 305.388974 230.284118 
L 305.547574 197.960392 
L 305.706174 197.960392 
L 305.864774 227.975281 
L 306.023374 227.975281 
L 306.181975 199.807462 
L 306.340575 225.781885 
L 306.499175 225.781885 
L 306.657775 201.885416 
L 306.816375 223.357606 
L 306.974975 223.357606 
L 307.133576 203.847928 
L 307.292176 221.510536 
L 307.450776 221.510536 
L 307.609376 205.694998 
L 307.767976 205.694998 
L 307.926576 219.548024 
L 308.085177 122.461404 
L 308.243777 122.461404 
L 308.402377 117.381961 
L 308.560977 116.68931 
L 308.719577 116.68931 
L 308.878177 116.112101 
L 309.036778 116.112101 
L 309.353978 113.456938 
L 309.512578 113.456938 
L 309.671178 112.764286 
L 309.829778 113.110612 
L 309.988379 113.110612 
L 310.305579 274.6138 
L 310.464179 274.6138 
L 310.622779 282.117522 
L 310.781379 282.117522 
L 311.09858 293.661709 
L 311.25718 293.661709 
L 311.57438 295.739663 
L 311.73298 295.739663 
L 311.891581 296.894082 
L 312.050181 296.894082 
L 312.367381 298.163943 
L 312.525981 298.163943 
L 312.684581 297.35585 
L 312.843182 188.263275 
L 313.001782 188.263275 
L 313.160382 257.066634 
L 313.318982 190.45667 
L 313.477582 190.45667 
L 313.636182 247.715842 
L 313.794783 247.715842 
L 313.953383 189.994903 
L 314.111983 242.405516 
L 314.270583 242.405516 
L 314.429183 190.687554 
L 314.587783 238.018724 
L 314.746384 238.018724 
L 314.904984 192.650066 
L 315.063584 192.650066 
L 315.222184 234.0937 
L 315.380784 195.305229 
L 315.539384 195.305229 
L 315.697985 230.515002 
L 315.856585 198.306718 
L 316.015185 198.306718 
L 316.173785 227.167188 
L 316.332385 227.167188 
L 316.490985 201.077323 
L 316.649586 224.281141 
L 316.808186 224.281141 
L 316.966786 203.847928 
L 317.125386 221.625977 
L 317.283986 221.625977 
L 317.442586 206.156766 
L 317.601187 219.086256 
L 317.759787 219.086256 
L 317.918387 208.119278 
L 318.076987 208.119278 
L 318.235587 217.239186 
L 318.394188 121.422427 
L 318.552788 121.422427 
L 318.711388 117.26652 
L 318.869988 116.573868 
L 319.028588 116.573868 
L 319.187188 115.996659 
L 319.345789 115.996659 
L 319.662989 113.456938 
L 319.821589 113.456938 
L 319.980189 113.110612 
L 320.29739 113.226054 
L 320.45599 246.445981 
L 320.61459 275.421893 
L 320.77319 275.421893 
L 320.93179 283.387382 
L 321.09039 283.387382 
L 321.407591 294.008035 
L 321.566191 294.008035 
L 321.883391 295.855105 
L 322.041991 295.855105 
L 322.200592 297.124966 
L 322.359192 297.124966 
L 322.517792 297.933059 
L 322.834992 298.048501 
L 322.993592 294.93157 
L 323.152193 182.491181 
L 323.310793 182.491181 
L 323.469393 260.991658 
L 323.627993 185.377228 
L 323.786593 185.377228 
L 323.945193 250.140121 
L 324.103794 250.140121 
L 324.262394 187.455182 
L 324.420994 242.867283 
L 324.579594 242.867283 
L 324.738194 190.572112 
L 324.896794 236.979747 
L 325.055395 236.979747 
L 325.213995 194.035369 
L 325.372595 194.035369 
L 325.531195 232.015747 
L 325.689795 197.960392 
L 325.848395 197.960392 
L 326.006996 227.513513 
L 326.165596 201.308207 
L 326.324196 201.308207 
L 326.482796 224.050257 
L 326.641396 204.656021 
L 326.799996 204.656021 
L 326.958597 220.587001 
L 327.117197 220.587001 
L 327.275797 207.311185 
L 327.434397 217.931837 
L 327.592997 217.931837 
L 327.751597 209.735464 
L 327.910198 215.738442 
L 328.068798 215.738442 
L 328.227398 211.467092 
L 328.385998 211.467092 
L 328.544598 214.006814 
L 328.703198 120.614334 
L 328.861799 120.614334 
L 329.020399 117.151078 
L 329.178999 116.573868 
L 329.337599 116.573868 
L 329.496199 115.996659 
L 329.654799 114.495914 
L 329.8134 114.495914 
L 329.972 113.341496 
L 330.1306 113.341496 
L 330.2892 112.764286 
L 330.4478 113.456938 
L 330.6064 113.456938 
L 330.765001 256.027657 
L 330.923601 275.88366 
L 331.082201 275.88366 
L 331.240801 284.541801 
L 331.399401 284.541801 
L 331.716602 294.008035 
L 331.875202 294.008035 
L 332.192402 295.970547 
L 332.351002 295.970547 
L 332.668203 297.817617 
L 332.826803 297.817617 
L 332.985403 298.163943 
L 333.144003 298.163943 
L 333.302603 287.427848 
L 333.461204 185.608111 
L 333.619804 185.608111 
L 333.778404 259.26003 
L 333.937004 187.224298 
L 334.095604 187.224298 
L 334.254204 247.715842 
L 334.412805 247.715842 
L 334.571405 190.918438 
L 334.730005 239.288585 
L 334.888605 239.288585 
L 335.047205 194.958904 
L 335.205805 232.477514 
L 335.364406 232.477514 
L 335.523006 199.230253 
L 335.681606 199.230253 
L 335.840206 227.051746 
L 335.998806 203.155277 
L 336.157406 203.155277 
L 336.316007 222.434071 
L 336.474607 206.733975 
L 336.633207 206.733975 
L 336.791807 219.086256 
L 336.950407 209.735464 
L 337.109007 209.735464 
L 337.267608 216.084767 
L 337.426208 216.084767 
L 337.584808 212.044302 
L 337.743408 213.891372 
L 337.902008 213.891372 
L 338.060608 213.77593 
L 338.219209 211.92886 
L 338.377809 211.92886 
L 338.536409 215.161232 
L 338.695009 215.161232 
L 338.853609 210.543557 
L 339.012209 119.690799 
L 339.17081 119.690799 
L 339.32941 116.920194 
L 339.48801 116.573868 
L 339.64661 116.573868 
L 340.281011 113.341496 
L 340.439611 113.341496 
L 340.598211 112.764286 
L 340.756811 114.380473 
L 340.915411 114.380473 
L 341.074012 262.723286 
L 341.232612 276.576312 
L 341.391212 276.576312 
L 341.708412 291.930081 
L 341.867012 291.930081 
L 342.025613 294.238919 
L 342.184213 294.238919 
L 342.342813 294.93157 
L 342.501413 296.201431 
L 342.660013 296.201431 
L 342.977214 298.048501 
L 343.135814 298.048501 
L 343.453014 298.163943 
L 343.611614 273.690265 
L 343.770215 196.690532 
L 343.928815 196.690532 
L 344.087415 251.640866 
L 344.246015 195.074345 
L 344.404615 195.074345 
L 344.563215 239.981236 
L 344.721816 239.981236 
L 344.880416 198.999369 
L 345.039016 231.438537 
L 345.197616 231.438537 
L 345.356216 203.039835 
L 345.514816 224.85835 
L 345.673417 224.85835 
L 345.832017 207.080301 
L 345.990617 219.663466 
L 346.149217 219.663466 
L 346.307817 210.428115 
L 346.466417 210.428115 
L 346.625018 215.853884 
L 346.783618 213.314162 
L 346.942218 213.314162 
L 347.100818 212.736953 
L 347.259418 215.161232 
L 347.418018 215.161232 
L 347.576619 210.774441 
L 347.735219 210.774441 
L 347.893819 216.89286 
L 348.052419 209.158255 
L 348.211019 209.158255 
L 348.369619 217.816395 
L 348.52822 208.350161 
L 348.68682 208.350161 
L 348.84542 218.162721 
L 349.00402 208.119278 
L 349.16262 127.656289 
L 349.32122 119.11359 
L 349.479821 119.11359 
L 349.638421 116.920194 
L 349.797021 116.573868 
L 349.955621 116.573868 
L 350.114221 115.765775 
L 350.272821 114.265031 
L 350.431422 114.265031 
L 350.590022 113.110612 
L 350.748622 113.110612 
L 350.907222 112.879728 
L 351.065822 123.154055 
L 351.224422 123.154055 
L 351.383023 266.879194 
L 351.541623 277.499847 
L 351.700223 277.499847 
L 352.017423 292.391849 
L 352.176023 292.391849 
L 352.334624 294.238919 
L 352.493224 294.238919 
L 352.810424 296.316873 
L 352.969024 296.316873 
L 353.286225 298.163943 
L 353.444825 298.163943 
L 353.762025 298.048501 
L 354.079225 212.275185 
L 354.237826 212.275185 
L 354.396426 239.173143 
L 354.555026 207.426626 
L 354.713626 207.426626 
L 354.872226 228.55249 
L 355.030826 210.197232 
L 355.189427 210.197232 
L 355.348027 220.933326 
L 355.506627 220.933326 
L 355.665227 213.083278 
L 355.823827 215.161232 
L 355.982427 215.161232 
L 356.141028 215.738442 
L 356.299628 211.467092 
L 356.458228 211.467092 
L 356.616828 218.278163 
L 356.775428 218.278163 
L 356.934029 208.696487 
L 357.092629 219.663466 
L 357.251229 219.663466 
L 357.409829 206.964859 
L 357.568429 220.471559 
L 357.727029 220.471559 
L 357.88563 206.041324 
L 358.04423 206.041324 
L 358.20283 220.817884 
L 358.36143 205.81044 
L 358.52003 205.81044 
L 358.67863 220.587001 
L 358.837231 205.81044 
L 358.995831 205.81044 
L 359.154431 220.240675 
L 359.313031 206.041324 
L 359.471631 126.040102 
L 359.630231 118.53638 
L 359.788832 118.53638 
L 359.947432 116.804752 
L 360.106032 116.458426 
L 360.264632 116.458426 
L 360.740433 114.034147 
L 360.899033 113.226054 
L 361.057633 113.226054 
L 361.216233 113.110612 
L 361.374833 148.435827 
L 361.533433 148.435827 
L 361.692034 269.880683 
L 361.850634 278.885149 
L 362.009234 278.885149 
L 362.326434 292.969058 
L 362.485034 292.969058 
L 362.643635 294.469803 
L 362.802235 294.469803 
L 363.595236 298.048501 
L 364.071036 298.048501 
L 364.229636 232.477514 
L 364.388236 228.321606 
L 364.546837 228.321606 
L 364.864037 221.510536 
L 365.022637 221.510536 
L 365.181237 215.161232 
L 365.339837 222.318629 
L 365.498438 222.318629 
L 365.657038 209.273697 
L 365.815638 209.273697 
L 365.974238 223.357606 
L 366.132838 205.81044 
L 366.291438 205.81044 
L 366.450039 224.396583 
L 366.608639 203.732486 
L 366.767239 203.732486 
L 366.925839 224.85835 
L 367.084439 224.85835 
L 367.243039 202.578068 
L 367.40164 224.627466 
L 367.56024 224.627466 
L 367.71884 202.347184 
L 367.87744 224.165699 
L 368.03604 224.165699 
L 368.19464 202.924393 
L 368.353241 223.126722 
L 368.511841 223.126722 
L 368.670441 203.617044 
L 368.829041 203.617044 
L 368.987641 222.087745 
L 369.146242 204.540579 
L 369.304842 204.540579 
L 369.463442 220.933326 
L 369.622042 205.694998 
L 369.780642 124.6548 
L 369.939242 118.190055 
L 370.097843 118.190055 
L 370.256443 116.68931 
L 370.415043 116.342985 
L 370.573643 116.342985 
L 371.208044 113.110612 
L 371.366644 112.879728 
L 371.525244 112.879728 
L 371.683844 186.069879 
L 371.842444 186.069879 
L 372.001045 272.074078 
L 372.159645 279.924126 
L 372.318245 279.924126 
L 372.635445 293.315384 
L 372.794045 293.315384 
L 372.952646 294.469803 
L 373.111246 294.469803 
L 373.745646 297.702175 
L 373.904247 298.163943 
L 374.062847 298.163943 
L 374.221447 297.933059 
L 374.380047 211.120767 
L 374.538647 211.120767 
L 374.697247 242.520957 
L 374.855848 242.520957 
L 375.014448 207.65751 
L 375.173048 234.786352 
L 375.331648 234.786352 
L 375.490248 202.462626 
L 375.648848 232.939282 
L 375.807449 232.939282 
L 375.966049 199.461137 
L 376.124649 199.461137 
L 376.283249 231.784863 
L 376.441849 198.191276 
L 376.600449 198.191276 
L 376.75905 230.630444 
L 376.91765 198.075834 
L 377.07625 198.075834 
L 377.23485 229.245141 
L 377.39345 229.245141 
L 377.55205 198.883927 
L 377.710651 227.513513 
L 377.869251 227.513513 
L 378.027851 200.153788 
L 378.186451 225.897327 
L 378.345051 225.897327 
L 378.503651 201.654533 
L 378.662252 223.819373 
L 378.820852 223.819373 
L 378.979452 203.501603 
L 379.138052 203.501603 
L 379.296652 221.972303 
L 379.455252 205.117789 
L 379.613853 205.117789 
L 379.772453 220.356117 
L 379.931053 206.618533 
L 380.089653 123.500381 
L 380.248253 117.843729 
L 380.406853 116.804752 
L 380.565454 116.804752 
L 380.724054 116.342985 
L 381.041254 113.803263 
L 381.199854 113.803263 
L 381.358455 112.879728 
L 381.517055 113.226054 
L 381.675655 113.226054 
L 381.834255 217.239186 
L 381.992855 217.239186 
L 382.151455 273.805706 
L 382.310056 281.309429 
L 382.468656 281.309429 
L 382.785856 293.661709 
L 382.944456 293.661709 
L 383.103056 294.585245 
L 383.261657 294.585245 
L 383.578857 296.894082 
L 383.737457 296.894082 
L 384.054657 298.163943 
L 384.213258 298.163943 
L 384.371858 297.933059 
L 384.530458 193.689043 
L 384.689058 193.689043 
L 384.847658 253.603378 
L 385.006258 253.603378 
L 385.164859 194.612578 
L 385.323459 244.829795 
L 385.482059 244.829795 
L 385.640659 192.88095 
L 385.799259 240.443004 
L 385.957859 240.443004 
L 386.11646 192.534624 
L 386.27506 192.534624 
L 386.43366 236.864305 
L 386.59226 193.458159 
L 386.75086 193.458159 
L 386.90946 233.862817 
L 387.068061 195.305229 
L 387.226661 195.305229 
L 387.385261 230.745886 
L 387.543861 197.729509 
L 387.702461 197.729509 
L 387.861061 227.513513 
L 388.019662 227.513513 
L 388.178262 200.153788 
L 388.336862 225.089234 
L 388.495462 225.089234 
L 388.654062 202.578068 
L 388.812662 222.549513 
L 388.971263 222.549513 
L 389.129863 204.886905 
L 389.288463 204.886905 
L 389.447063 220.356117 
L 389.605663 206.964859 
L 389.764263 206.964859 
L 389.922864 218.509047 
L 390.081464 122.115078 
L 390.240064 122.115078 
L 390.398664 117.612845 
L 390.874465 113.687821 
L 391.033065 113.687821 
L 391.191665 113.226054 
L 391.350265 113.226054 
L 391.508865 113.341496 
L 391.667465 237.441515 
L 391.826066 237.441515 
L 391.984666 275.075567 
L 392.143266 282.579289 
L 392.301866 282.579289 
L 392.619066 293.777151 
L 392.777667 293.777151 
L 392.936267 294.700686 
L 393.094867 294.700686 
L 393.412067 296.894082 
L 393.570667 296.894082 
L 393.729268 297.933059 
L 393.887868 298.163943 
L 394.046468 298.163943 
L 394.205068 296.663198 
L 394.363668 296.663198 
L 394.522269 183.991925 
L 394.680869 259.952681 
L 394.839469 259.952681 
L 394.998069 186.877972 
L 395.156669 249.562912 
L 395.315269 249.562912 
L 395.47387 187.916949 
L 395.63247 243.329051 
L 395.79107 243.329051 
L 395.94967 189.994903 
L 396.10827 189.994903 
L 396.26687 237.903282 
L 396.425471 192.88095 
L 396.584071 192.88095 
L 396.742671 233.401049 
L 396.901271 196.459648 
L 397.059871 196.459648 
L 397.218471 229.245141 
L 397.377072 229.245141 
L 397.535672 199.461137 
L 397.694272 225.666443 
L 397.852872 225.666443 
L 398.011472 202.578068 
L 398.170072 222.434071 
L 398.328673 222.434071 
L 398.487273 205.464115 
L 398.487273 205.464115 
" style="fill:none;stroke:#ffff00;stroke-linecap:square;stroke-width:0.1;"/>
   </g>
   <g id="patch_3">
    <path d="M 57.6 307.584 
L 57.6 41.472 
" style="fill:none;stroke:#ffffff;stroke-linecap:square;stroke-linejoin:miter;stroke-width:0.8;"/>
   </g>
   <g id="patch_4">
    <path d="M 414.72 307.584 
L 414.72 41.472 
" style="fill:none;stroke:#ffffff;stroke-linecap:square;stroke-linejoin:miter;stroke-width:0.8;"/>
   </g>
   <g id="patch_5">
    <path d="M 57.6 307.584 
L 414.72 307.584 
" style="fill:none;stroke:#ffffff;stroke-linecap:square;stroke-linejoin:miter;stroke-width:0.8;"/>
   </g>
   <g id="patch_6">
    <path d="M 57.6 41.472 
L 414.72 41.472 
" style="fill:none;stroke:#ffffff;stroke-linecap:square;stroke-linejoin:miter;stroke-width:0.8;"/>
   </g>
   <g id="text_17">
    <!-- Vmax: 9.34 -->
    <defs>
     <path d="M 54.890625 54.6875 
L 35.109375 28.078125 
L 55.90625 0 
L 45.3125 0 
L 29.390625 21.484375 
L 13.484375 0 
L 2.875 0 
L 24.125 28.609375 
L 4.6875 54.6875 
L 15.28125 54.6875 
L 29.78125 35.203125 
L 44.28125 54.6875 
z
" id="DejaVuSans-120"/>
     <path d="M 11.71875 12.40625 
L 22.015625 12.40625 
L 22.015625 0 
L 11.71875 0 
z
M 11.71875 51.703125 
L 22.015625 51.703125 
L 22.015625 39.3125 
L 11.71875 39.3125 
z
" id="DejaVuSans-58"/>
     <path d="M 10.984375 1.515625 
L 10.984375 10.5 
Q 14.703125 8.734375 18.5 7.8125 
Q 22.3125 6.890625 25.984375 6.890625 
Q 35.75 6.890625 40.890625 13.453125 
Q 46.046875 20.015625 46.78125 33.40625 
Q 43.953125 29.203125 39.59375 26.953125 
Q 35.25 24.703125 29.984375 24.703125 
Q 19.046875 24.703125 12.671875 31.3125 
Q 6.296875 37.9375 6.296875 49.421875 
Q 6.296875 60.640625 12.9375 67.421875 
Q 19.578125 74.21875 30.609375 74.21875 
Q 43.265625 74.21875 49.921875 64.515625 
Q 56.59375 54.828125 56.59375 36.375 
Q 56.59375 19.140625 48.40625 8.859375 
Q 40.234375 -1.421875 26.421875 -1.421875 
Q 22.703125 -1.421875 18.890625 -0.6875 
Q 15.09375 0.046875 10.984375 1.515625 
z
M 30.609375 32.421875 
Q 37.25 32.421875 41.125 36.953125 
Q 45.015625 41.5 45.015625 49.421875 
Q 45.015625 57.28125 41.125 61.84375 
Q 37.25 66.40625 30.609375 66.40625 
Q 23.96875 66.40625 20.09375 61.84375 
Q 16.21875 57.28125 16.21875 49.421875 
Q 16.21875 41.5 20.09375 36.953125 
Q 23.96875 32.421875 30.609375 32.421875 
z
" id="DejaVuSans-57"/>
     <path d="M 10.6875 12.40625 
L 21 12.40625 
L 21 0 
L 10.6875 0 
z
" id="DejaVuSans-46"/>
     <path d="M 40.578125 39.3125 
Q 47.65625 37.796875 51.625 33 
Q 55.609375 28.21875 55.609375 21.1875 
Q 55.609375 10.40625 48.1875 4.484375 
Q 40.765625 -1.421875 27.09375 -1.421875 
Q 22.515625 -1.421875 17.65625 -0.515625 
Q 12.796875 0.390625 7.625 2.203125 
L 7.625 11.71875 
Q 11.71875 9.328125 16.59375 8.109375 
Q 21.484375 6.890625 26.8125 6.890625 
Q 36.078125 6.890625 40.9375 10.546875 
Q 45.796875 14.203125 45.796875 21.1875 
Q 45.796875 27.640625 41.28125 31.265625 
Q 36.765625 34.90625 28.71875 34.90625 
L 20.21875 34.90625 
L 20.21875 43.015625 
L 29.109375 43.015625 
Q 36.375 43.015625 40.234375 45.921875 
Q 44.09375 48.828125 44.09375 54.296875 
Q 44.09375 59.90625 40.109375 62.90625 
Q 36.140625 65.921875 28.71875 65.921875 
Q 24.65625 65.921875 20.015625 65.03125 
Q 15.375 64.15625 9.8125 62.3125 
L 9.8125 71.09375 
Q 15.4375 72.65625 20.34375 73.4375 
Q 25.25 74.21875 29.59375 74.21875 
Q 40.828125 74.21875 47.359375 69.109375 
Q 53.90625 64.015625 53.90625 55.328125 
Q 53.90625 49.265625 50.4375 45.09375 
Q 46.96875 40.921875 40.578125 39.3125 
z
" id="DejaVuSans-51"/>
    </defs>
    <g style="fill:#ffffff;" transform="translate(351.181886 56.47764)scale(0.08 -0.08)">
     <use xlink:href="#DejaVuSans-86"/>
     <use x="68.408203" xlink:href="#DejaVuSans-109"/>
     <use x="165.820312" xlink:href="#DejaVuSans-97"/>
     <use x="227.099609" xlink:href="#DejaVuSans-120"/>
     <use x="286.279297" xlink:href="#DejaVuSans-58"/>
     <use x="319.970703" xlink:href="#DejaVuSans-32"/>
     <use x="351.757812" xlink:href="#DejaVuSans-57"/>
     <use x="415.380859" xlink:href="#DejaVuSans-46"/>
     <use x="447.167969" xlink:href="#DejaVuSans-51"/>
     <use x="510.791016" xlink:href="#DejaVuSans-52"/>
    </g>
    <!-- Vmin: -6.78 -->
    <defs>
     <path d="M 54.890625 33.015625 
L 54.890625 0 
L 45.90625 0 
L 45.90625 32.71875 
Q 45.90625 40.484375 42.875 44.328125 
Q 39.84375 48.1875 33.796875 48.1875 
Q 26.515625 48.1875 22.3125 43.546875 
Q 18.109375 38.921875 18.109375 30.90625 
L 18.109375 0 
L 9.078125 0 
L 9.078125 54.6875 
L 18.109375 54.6875 
L 18.109375 46.1875 
Q 21.34375 51.125 25.703125 53.5625 
Q 30.078125 56 35.796875 56 
Q 45.21875 56 50.046875 50.171875 
Q 54.890625 44.34375 54.890625 33.015625 
z
" id="DejaVuSans-110"/>
     <path d="M 4.890625 31.390625 
L 31.203125 31.390625 
L 31.203125 23.390625 
L 4.890625 23.390625 
z
" id="DejaVuSans-45"/>
     <path d="M 8.203125 72.90625 
L 55.078125 72.90625 
L 55.078125 68.703125 
L 28.609375 0 
L 18.3125 0 
L 43.21875 64.59375 
L 8.203125 64.59375 
z
" id="DejaVuSans-55"/>
    </defs>
    <g style="fill:#ffffff;" transform="translate(351.181886 65.43589)scale(0.08 -0.08)">
     <use xlink:href="#DejaVuSans-86"/>
     <use x="68.408203" xlink:href="#DejaVuSans-109"/>
     <use x="165.820312" xlink:href="#DejaVuSans-105"/>
     <use x="193.603516" xlink:href="#DejaVuSans-110"/>
     <use x="256.982422" xlink:href="#DejaVuSans-58"/>
     <use x="290.673828" xlink:href="#DejaVuSans-32"/>
     <use x="322.460938" xlink:href="#DejaVuSans-45"/>
     <use x="358.544922" xlink:href="#DejaVuSans-54"/>
     <use x="422.167969" xlink:href="#DejaVuSans-46"/>
     <use x="453.955078" xlink:href="#DejaVuSans-55"/>
     <use x="517.578125" xlink:href="#DejaVuSans-56"/>
    </g>
    <!-- Vavr: 0.44 -->
    <defs>
     <path d="M 2.984375 54.6875 
L 12.5 54.6875 
L 29.59375 8.796875 
L 46.6875 54.6875 
L 56.203125 54.6875 
L 35.6875 0 
L 23.484375 0 
z
" id="DejaVuSans-118"/>
     <path d="M 41.109375 46.296875 
Q 39.59375 47.171875 37.8125 47.578125 
Q 36.03125 48 33.890625 48 
Q 26.265625 48 22.1875 43.046875 
Q 18.109375 38.09375 18.109375 28.8125 
L 18.109375 0 
L 9.078125 0 
L 9.078125 54.6875 
L 18.109375 54.6875 
L 18.109375 46.1875 
Q 20.953125 51.171875 25.484375 53.578125 
Q 30.03125 56 36.53125 56 
Q 37.453125 56 38.578125 55.875 
Q 39.703125 55.765625 41.0625 55.515625 
z
" id="DejaVuSans-114"/>
    </defs>
    <g style="fill:#ffffff;" transform="translate(351.181886 74.39414)scale(0.08 -0.08)">
     <use xlink:href="#DejaVuSans-86"/>
     <use x="60.658203" xlink:href="#DejaVuSans-97"/>
     <use x="121.9375" xlink:href="#DejaVuSans-118"/>
     <use x="181.117188" xlink:href="#DejaVuSans-114"/>
     <use x="220.480469" xlink:href="#DejaVuSans-58"/>
     <use x="254.171875" xlink:href="#DejaVuSans-32"/>
     <use x="285.958984" xlink:href="#DejaVuSans-48"/>
     <use x="349.582031" xlink:href="#DejaVuSans-46"/>
     <use x="381.369141" xlink:href="#DejaVuSans-52"/>
     <use x="444.992188" xlink:href="#DejaVuSans-52"/>
    </g>
    <!-- Vpp: 16.12 -->
    <defs>
     <path d="M 18.109375 8.203125 
L 18.109375 -20.796875 
L 9.078125 -20.796875 
L 9.078125 54.6875 
L 18.109375 54.6875 
L 18.109375 46.390625 
Q 20.953125 51.265625 25.265625 53.625 
Q 29.59375 56 35.59375 56 
Q 45.5625 56 51.78125 48.09375 
Q 58.015625 40.1875 58.015625 27.296875 
Q 58.015625 14.40625 51.78125 6.484375 
Q 45.5625 -1.421875 35.59375 -1.421875 
Q 29.59375 -1.421875 25.265625 0.953125 
Q 20.953125 3.328125 18.109375 8.203125 
z
M 48.6875 27.296875 
Q 48.6875 37.203125 44.609375 42.84375 
Q 40.53125 48.484375 33.40625 48.484375 
Q 26.265625 48.484375 22.1875 42.84375 
Q 18.109375 37.203125 18.109375 27.296875 
Q 18.109375 17.390625 22.1875 11.75 
Q 26.265625 6.109375 33.40625 6.109375 
Q 40.53125 6.109375 44.609375 11.75 
Q 48.6875 17.390625 48.6875 27.296875 
z
" id="DejaVuSans-112"/>
    </defs>
    <g style="fill:#ffffff;" transform="translate(351.181886 83.35239)scale(0.08 -0.08)">
     <use xlink:href="#DejaVuSans-86"/>
     <use x="68.408203" xlink:href="#DejaVuSans-112"/>
     <use x="131.884766" xlink:href="#DejaVuSans-112"/>
     <use x="195.361328" xlink:href="#DejaVuSans-58"/>
     <use x="229.052734" xlink:href="#DejaVuSans-32"/>
     <use x="260.839844" xlink:href="#DejaVuSans-49"/>
     <use x="324.462891" xlink:href="#DejaVuSans-54"/>
     <use x="388.085938" xlink:href="#DejaVuSans-46"/>
     <use x="419.873047" xlink:href="#DejaVuSans-49"/>
     <use x="483.496094" xlink:href="#DejaVuSans-50"/>
    </g>
    <!-- Vrms: 5.14 -->
    <defs>
     <path d="M 44.28125 53.078125 
L 44.28125 44.578125 
Q 40.484375 46.53125 36.375 47.5 
Q 32.28125 48.484375 27.875 48.484375 
Q 21.1875 48.484375 17.84375 46.4375 
Q 14.5 44.390625 14.5 40.28125 
Q 14.5 37.15625 16.890625 35.375 
Q 19.28125 33.59375 26.515625 31.984375 
L 29.59375 31.296875 
Q 39.15625 29.25 43.1875 25.515625 
Q 47.21875 21.78125 47.21875 15.09375 
Q 47.21875 7.46875 41.1875 3.015625 
Q 35.15625 -1.421875 24.609375 -1.421875 
Q 20.21875 -1.421875 15.453125 -0.5625 
Q 10.6875 0.296875 5.421875 2 
L 5.421875 11.28125 
Q 10.40625 8.6875 15.234375 7.390625 
Q 20.0625 6.109375 24.8125 6.109375 
Q 31.15625 6.109375 34.5625 8.28125 
Q 37.984375 10.453125 37.984375 14.40625 
Q 37.984375 18.0625 35.515625 20.015625 
Q 33.0625 21.96875 24.703125 23.78125 
L 21.578125 24.515625 
Q 13.234375 26.265625 9.515625 29.90625 
Q 5.8125 33.546875 5.8125 39.890625 
Q 5.8125 47.609375 11.28125 51.796875 
Q 16.75 56 26.8125 56 
Q 31.78125 56 36.171875 55.265625 
Q 40.578125 54.546875 44.28125 53.078125 
z
" id="DejaVuSans-115"/>
    </defs>
    <g style="fill:#ffffff;" transform="translate(351.181886 92.31064)scale(0.08 -0.08)">
     <use xlink:href="#DejaVuSans-86"/>
     <use x="68.408203" xlink:href="#DejaVuSans-114"/>
     <use x="107.771484" xlink:href="#DejaVuSans-109"/>
     <use x="205.183594" xlink:href="#DejaVuSans-115"/>
     <use x="257.283203" xlink:href="#DejaVuSans-58"/>
     <use x="290.974609" xlink:href="#DejaVuSans-32"/>
     <use x="322.761719" xlink:href="#DejaVuSans-53"/>
     <use x="386.384766" xlink:href="#DejaVuSans-46"/>
     <use x="418.171875" xlink:href="#DejaVuSans-49"/>
     <use x="481.794922" xlink:href="#DejaVuSans-52"/>
    </g>
   </g>
   <g id="text_18">
    <!-- Freq: 207971.28 -->
    <defs>
     <path d="M 9.8125 72.90625 
L 51.703125 72.90625 
L 51.703125 64.59375 
L 19.671875 64.59375 
L 19.671875 43.109375 
L 48.578125 43.109375 
L 48.578125 34.8125 
L 19.671875 34.8125 
L 19.671875 0 
L 9.8125 0 
z
" id="DejaVuSans-70"/>
     <path d="M 14.796875 27.296875 
Q 14.796875 17.390625 18.875 11.75 
Q 22.953125 6.109375 30.078125 6.109375 
Q 37.203125 6.109375 41.296875 11.75 
Q 45.40625 17.390625 45.40625 27.296875 
Q 45.40625 37.203125 41.296875 42.84375 
Q 37.203125 48.484375 30.078125 48.484375 
Q 22.953125 48.484375 18.875 42.84375 
Q 14.796875 37.203125 14.796875 27.296875 
z
M 45.40625 8.203125 
Q 42.578125 3.328125 38.25 0.953125 
Q 33.9375 -1.421875 27.875 -1.421875 
Q 17.96875 -1.421875 11.734375 6.484375 
Q 5.515625 14.40625 5.515625 27.296875 
Q 5.515625 40.1875 11.734375 48.09375 
Q 17.96875 56 27.875 56 
Q 33.9375 56 38.25 53.625 
Q 42.578125 51.265625 45.40625 46.390625 
L 45.40625 54.6875 
L 54.390625 54.6875 
L 54.390625 -20.796875 
L 45.40625 -20.796875 
z
" id="DejaVuSans-113"/>
    </defs>
    <g style="fill:#ffffff;" transform="translate(73.832727 56.47764)scale(0.08 -0.08)">
     <use xlink:href="#DejaVuSans-70"/>
     <use x="50.269531" xlink:href="#DejaVuSans-114"/>
     <use x="89.132812" xlink:href="#DejaVuSans-101"/>
     <use x="150.65625" xlink:href="#DejaVuSans-113"/>
     <use x="214.132812" xlink:href="#DejaVuSans-58"/>
     <use x="247.824219" xlink:href="#DejaVuSans-32"/>
     <use x="279.611328" xlink:href="#DejaVuSans-50"/>
     <use x="343.234375" xlink:href="#DejaVuSans-48"/>
     <use x="406.857422" xlink:href="#DejaVuSans-55"/>
     <use x="470.480469" xlink:href="#DejaVuSans-57"/>
     <use x="534.103516" xlink:href="#DejaVuSans-55"/>
     <use x="597.726562" xlink:href="#DejaVuSans-49"/>
     <use x="661.349609" xlink:href="#DejaVuSans-46"/>
     <use x="693.136719" xlink:href="#DejaVuSans-50"/>
     <use x="756.759766" xlink:href="#DejaVuSans-56"/>
    </g>
    <!-- Cycle: 0.00 ms -->
    <defs>
     <path d="M 64.40625 67.28125 
L 64.40625 56.890625 
Q 59.421875 61.53125 53.78125 63.8125 
Q 48.140625 66.109375 41.796875 66.109375 
Q 29.296875 66.109375 22.65625 58.46875 
Q 16.015625 50.828125 16.015625 36.375 
Q 16.015625 21.96875 22.65625 14.328125 
Q 29.296875 6.6875 41.796875 6.6875 
Q 48.140625 6.6875 53.78125 8.984375 
Q 59.421875 11.28125 64.40625 15.921875 
L 64.40625 5.609375 
Q 59.234375 2.09375 53.4375 0.328125 
Q 47.65625 -1.421875 41.21875 -1.421875 
Q 24.65625 -1.421875 15.125 8.703125 
Q 5.609375 18.84375 5.609375 36.375 
Q 5.609375 53.953125 15.125 64.078125 
Q 24.65625 74.21875 41.21875 74.21875 
Q 47.75 74.21875 53.53125 72.484375 
Q 59.328125 70.75 64.40625 67.28125 
z
" id="DejaVuSans-67"/>
     <path d="M 32.171875 -5.078125 
Q 28.375 -14.84375 24.75 -17.8125 
Q 21.140625 -20.796875 15.09375 -20.796875 
L 7.90625 -20.796875 
L 7.90625 -13.28125 
L 13.1875 -13.28125 
Q 16.890625 -13.28125 18.9375 -11.515625 
Q 21 -9.765625 23.484375 -3.21875 
L 25.09375 0.875 
L 2.984375 54.6875 
L 12.5 54.6875 
L 29.59375 11.921875 
L 46.6875 54.6875 
L 56.203125 54.6875 
z
" id="DejaVuSans-121"/>
     <path d="M 48.78125 52.59375 
L 48.78125 44.1875 
Q 44.96875 46.296875 41.140625 47.34375 
Q 37.3125 48.390625 33.40625 48.390625 
Q 24.65625 48.390625 19.8125 42.84375 
Q 14.984375 37.3125 14.984375 27.296875 
Q 14.984375 17.28125 19.8125 11.734375 
Q 24.65625 6.203125 33.40625 6.203125 
Q 37.3125 6.203125 41.140625 7.25 
Q 44.96875 8.296875 48.78125 10.40625 
L 48.78125 2.09375 
Q 45.015625 0.34375 40.984375 -0.53125 
Q 36.96875 -1.421875 32.421875 -1.421875 
Q 20.0625 -1.421875 12.78125 6.34375 
Q 5.515625 14.109375 5.515625 27.296875 
Q 5.515625 40.671875 12.859375 48.328125 
Q 20.21875 56 33.015625 56 
Q 37.15625 56 41.109375 55.140625 
Q 45.0625 54.296875 48.78125 52.59375 
z
" id="DejaVuSans-99"/>
    </defs>
    <g style="fill:#ffffff;" transform="translate(73.832727 65.43589)scale(0.08 -0.08)">
     <use xlink:href="#DejaVuSans-67"/>
     <use x="69.824219" xlink:href="#DejaVuSans-121"/>
     <use x="129.003906" xlink:href="#DejaVuSans-99"/>
     <use x="183.984375" xlink:href="#DejaVuSans-108"/>
     <use x="211.767578" xlink:href="#DejaVuSans-101"/>
     <use x="273.291016" xlink:href="#DejaVuSans-58"/>
     <use x="306.982422" xlink:href="#DejaVuSans-32"/>
     <use x="338.769531" xlink:href="#DejaVuSans-48"/>
     <use x="402.392578" xlink:href="#DejaVuSans-46"/>
     <use x="434.179688" xlink:href="#DejaVuSans-48"/>
     <use x="497.802734" xlink:href="#DejaVuSans-48"/>
     <use x="561.425781" xlink:href="#DejaVuSans-32"/>
     <use x="593.212891" xlink:href="#DejaVuSans-109"/>
     <use x="690.625" xlink:href="#DejaVuSans-115"/>
    </g>
    <!-- PW: 0.00 ms -->
    <defs>
     <path d="M 19.671875 64.796875 
L 19.671875 37.40625 
L 32.078125 37.40625 
Q 38.96875 37.40625 42.71875 40.96875 
Q 46.484375 44.53125 46.484375 51.125 
Q 46.484375 57.671875 42.71875 61.234375 
Q 38.96875 64.796875 32.078125 64.796875 
z
M 9.8125 72.90625 
L 32.078125 72.90625 
Q 44.34375 72.90625 50.609375 67.359375 
Q 56.890625 61.8125 56.890625 51.125 
Q 56.890625 40.328125 50.609375 34.8125 
Q 44.34375 29.296875 32.078125 29.296875 
L 19.671875 29.296875 
L 19.671875 0 
L 9.8125 0 
z
" id="DejaVuSans-80"/>
     <path d="M 3.328125 72.90625 
L 13.28125 72.90625 
L 28.609375 11.28125 
L 43.890625 72.90625 
L 54.984375 72.90625 
L 70.3125 11.28125 
L 85.59375 72.90625 
L 95.609375 72.90625 
L 77.296875 0 
L 64.890625 0 
L 49.515625 63.28125 
L 33.984375 0 
L 21.578125 0 
z
" id="DejaVuSans-87"/>
    </defs>
    <g style="fill:#ffffff;" transform="translate(73.832727 74.39414)scale(0.08 -0.08)">
     <use xlink:href="#DejaVuSans-80"/>
     <use x="60.302734" xlink:href="#DejaVuSans-87"/>
     <use x="153.304688" xlink:href="#DejaVuSans-58"/>
     <use x="186.996094" xlink:href="#DejaVuSans-32"/>
     <use x="218.783203" xlink:href="#DejaVuSans-48"/>
     <use x="282.40625" xlink:href="#DejaVuSans-46"/>
     <use x="314.193359" xlink:href="#DejaVuSans-48"/>
     <use x="377.816406" xlink:href="#DejaVuSans-48"/>
     <use x="441.439453" xlink:href="#DejaVuSans-32"/>
     <use x="473.226562" xlink:href="#DejaVuSans-109"/>
     <use x="570.638672" xlink:href="#DejaVuSans-115"/>
    </g>
    <!-- Duty: 48.83 % -->
    <defs>
     <path d="M 19.671875 64.796875 
L 19.671875 8.109375 
L 31.59375 8.109375 
Q 46.6875 8.109375 53.6875 14.9375 
Q 60.6875 21.78125 60.6875 36.53125 
Q 60.6875 51.171875 53.6875 57.984375 
Q 46.6875 64.796875 31.59375 64.796875 
z
M 9.8125 72.90625 
L 30.078125 72.90625 
Q 51.265625 72.90625 61.171875 64.09375 
Q 71.09375 55.28125 71.09375 36.53125 
Q 71.09375 17.671875 61.125 8.828125 
Q 51.171875 0 30.078125 0 
L 9.8125 0 
z
" id="DejaVuSans-68"/>
     <path d="M 72.703125 32.078125 
Q 68.453125 32.078125 66.03125 28.46875 
Q 63.625 24.859375 63.625 18.40625 
Q 63.625 12.0625 66.03125 8.421875 
Q 68.453125 4.78125 72.703125 4.78125 
Q 76.859375 4.78125 79.265625 8.421875 
Q 81.6875 12.0625 81.6875 18.40625 
Q 81.6875 24.8125 79.265625 28.4375 
Q 76.859375 32.078125 72.703125 32.078125 
z
M 72.703125 38.28125 
Q 80.421875 38.28125 84.953125 32.90625 
Q 89.5 27.546875 89.5 18.40625 
Q 89.5 9.28125 84.9375 3.921875 
Q 80.375 -1.421875 72.703125 -1.421875 
Q 64.890625 -1.421875 60.34375 3.921875 
Q 55.8125 9.28125 55.8125 18.40625 
Q 55.8125 27.59375 60.375 32.9375 
Q 64.9375 38.28125 72.703125 38.28125 
z
M 22.3125 68.015625 
Q 18.109375 68.015625 15.6875 64.375 
Q 13.28125 60.75 13.28125 54.390625 
Q 13.28125 47.953125 15.671875 44.328125 
Q 18.0625 40.71875 22.3125 40.71875 
Q 26.5625 40.71875 28.96875 44.328125 
Q 31.390625 47.953125 31.390625 54.390625 
Q 31.390625 60.6875 28.953125 64.34375 
Q 26.515625 68.015625 22.3125 68.015625 
z
M 66.40625 74.21875 
L 74.21875 74.21875 
L 28.609375 -1.421875 
L 20.796875 -1.421875 
z
M 22.3125 74.21875 
Q 30.03125 74.21875 34.609375 68.875 
Q 39.203125 63.53125 39.203125 54.390625 
Q 39.203125 45.171875 34.640625 39.84375 
Q 30.078125 34.515625 22.3125 34.515625 
Q 14.546875 34.515625 10.03125 39.859375 
Q 5.515625 45.21875 5.515625 54.390625 
Q 5.515625 63.484375 10.046875 68.84375 
Q 14.59375 74.21875 22.3125 74.21875 
z
" id="DejaVuSans-37"/>
    </defs>
    <g style="fill:#ffffff;" transform="translate(73.832727 83.35239)scale(0.08 -0.08)">
     <use xlink:href="#DejaVuSans-68"/>
     <use x="77.001953" xlink:href="#DejaVuSans-117"/>
     <use x="140.380859" xlink:href="#DejaVuSans-116"/>
     <use x="179.589844" xlink:href="#DejaVuSans-121"/>
     <use x="231.519531" xlink:href="#DejaVuSans-58"/>
     <use x="265.210938" xlink:href="#DejaVuSans-32"/>
     <use x="296.998047" xlink:href="#DejaVuSans-52"/>
     <use x="360.621094" xlink:href="#DejaVuSans-56"/>
     <use x="424.244141" xlink:href="#DejaVuSans-46"/>
     <use x="456.03125" xlink:href="#DejaVuSans-56"/>
     <use x="519.654297" xlink:href="#DejaVuSans-51"/>
     <use x="583.277344" xlink:href="#DejaVuSans-32"/>
     <use x="615.064453" xlink:href="#DejaVuSans-37"/>
    </g>
   </g>
  </g>
 </g>
 <defs>
  <clipPath id="p1773bfc1f0">
   <rect height="266.112" width="357.12" x="57.6" y="41.472"/>
  </clipPath>
 </defs>
</svg>
